<?xml version="1.0" encoding="UTF-8"?>
<svg width="299px" height="46px" viewBox="0 0 299 46" version="1.1" xmlns="http://www.w3.org/2000/svg" xmlns:xlink="http://www.w3.org/1999/xlink">
    <!-- Generator: Sketch 57.1 (83088) - https://sketch.com -->
    <title>BC-LOGO BLACKBLUE FINAL 2018 Copy 3</title>
    <desc>Created with Sketch.</desc>
    <defs>
        <polygon id="path-1" points="0.0331484986 0.00189922404 23.7674786 0.00189922404 23.7674786 44.6332846 0.0331484986 44.6332846"></polygon>
        <polygon id="path-3" points="0.0438001498 0.00530760826 18.8549244 0.00530760826 18.8549244 12.5515826 0.0438001498 12.5515826"></polygon>
    </defs>
    <g id="Page-1" stroke="none" stroke-width="1" fill="none" fill-rule="evenodd">
        <g id="BC-LOGO-BLACKBLUE-FINAL-2018-Copy-3">
            <g id="Group-3" transform="translate(59.064081, 13.685950)">
                <path d="M12.0661976,12.0870519 C12.0661976,11.649204 11.8171238,10.919829 10.6539162,10.919829 L6.27199491,10.919829 L6.27199491,13.2747003 L10.6539162,13.2747003 C11.8171238,13.2747003 12.0661976,12.4617665 12.0661976,12.0870519 Z M6.27199491,5.39752395 L6.27199491,7.58564911 L10.571015,7.58564911 C11.7338525,7.58564911 11.9832963,6.91866459 11.9832963,6.50198496 C11.9832963,6.04334025 11.7338525,5.39752395 10.571015,5.39752395 L6.27199491,5.39752395 Z M18.4210937,13.1495478 C18.4210937,15.942267 16.4692142,18.0887984 10.8826347,18.0887984 L-1.13686838e-13,18.0887984 L-1.13686838e-13,0.583425769 L11.2771557,0.583425769 C16.6353867,0.583425769 17.9851221,3.0006876 17.9851221,5.27200014 C17.9851221,7.29375054 16.9466364,8.08551613 15.8045241,8.75250065 L15.8045241,9.1275866 C17.4244286,10.0029109 18.4210937,11.1697625 18.4210937,13.1495478 L18.4210937,13.1495478 Z" id="Fill-3" fill="#1A1C1C"></path>
                <path d="M25.8355709,9.10678976 L29.3662744,9.10678976 C30.6123832,9.10678976 31.2145273,8.4817703 31.2145273,7.46049667 C31.2145273,6.43959442 30.6123832,5.81420359 29.3662744,5.81420359 L25.8355709,5.81420359 L25.8355709,9.10678976 Z M31.9828439,18.0887984 L29.7818907,13.7957355 L25.8355709,13.7957355 L25.8355709,18.0887984 L19.563576,18.0887984 L19.563576,0.583425769 L29.8229712,0.583425769 C34.7245055,0.583425769 37.5072475,2.62560165 37.5072475,7.41853161 C37.5072475,9.71101237 36.5102124,11.3781023 35.1190264,12.4201728 L38.1512123,18.0887984 L31.9828439,18.0887984 L31.9828439,18.0887984 Z" id="Fill-4" fill="#1A1C1C"></path>
                <path d="M51.0689978,11.3365086 L49.5323646,6.50198496 L48.4520581,6.50198496 L46.9154249,11.3365086 L51.0689978,11.3365086 Z M52.5434551,15.9838607 L45.4409676,15.9838607 L44.7762776,18.0887984 L38.2966595,18.0887984 L44.5893797,0.583425769 L53.395043,0.583425769 L59.7084885,18.0887984 L53.2081451,18.0887984 L52.5434551,15.9838607 L52.5434551,15.9838607 Z" id="Fill-5" fill="#5E9EC9"></path>
                <polygon id="Fill-6" fill="#5E9EC9" points="60.4357246 18.0887984 66.7077195 18.0887984 66.7077195 0.583425769 60.4357246 0.583425769"></polygon>
                <polyline id="Fill-7" fill="#1A1C1C" points="68.0785503 0.583425769 75.2639389 0.583425769 80.2898249 9.27353589 80.8716138 9.27353589 80.8716138 0.583425769 86.9977914 0.583425769 86.9977914 18.0887984 79.9574799 18.0887984 74.7657914 9.39831696 74.2047279 9.39831696 74.2047279 18.0887984 68.0785503 18.0887984 68.0785503 0.583425769"></polyline>
                <path d="M88.0366472,9.33592642 C88.0366472,3.68809759 91.9618716,-1.70530257e-13 97.9222468,-1.70530257e-13 C102.304538,-1.70530257e-13 106.831907,1.93819165 107.309329,8.10631298 L101.328228,8.10631298 C100.933707,6.29327376 99.7083238,5.43874627 97.9222468,5.43874627 C95.9074512,5.43874627 94.2668214,6.91866459 94.2668214,9.33592642 C94.2668214,11.7327628 95.9074512,13.2331066 97.9222468,13.2331066 C99.7083238,13.2331066 100.933707,12.3785791 101.328228,10.5239462 L107.309329,10.5239462 C106.831907,16.7340326 102.366714,18.6722242 97.9222468,18.6722242 C91.9618716,18.6722242 88.0366472,14.9833839 88.0366472,9.33592642" id="Fill-8" fill="#1A1C1C"></path>
                <path d="M114.640535,9.10678976 L118.171238,9.10678976 C119.417347,9.10678976 120.019491,8.4817703 120.019491,7.46049667 C120.019491,6.43959442 119.417347,5.81420359 118.171238,5.81420359 L114.640535,5.81420359 L114.640535,9.10678976 Z M120.787808,18.0887984 L118.586484,13.7957355 L114.640535,13.7957355 L114.640535,18.0887984 L108.36854,18.0887984 L108.36854,0.583425769 L118.627935,0.583425769 C123.529099,0.583425769 126.312211,2.62560165 126.312211,7.41853161 C126.312211,9.71101237 125.314806,11.3781023 123.92399,12.4201728 L126.955806,18.0887984 L120.787808,18.0887984 L120.787808,18.0887984 Z" id="Fill-9" fill="#1A1C1C"></path>
                <polyline id="Fill-10" fill="#1A1C1C" points="128.035742 0.583425769 144.08971 0.583425769 144.08971 5.60586377 134.307737 5.60586377 134.307737 7.31454739 143.715915 7.31454739 143.715915 11.3576768 134.307737 11.3576768 134.307737 13.0455636 144.08971 13.0455636 144.08971 18.0887984 128.035742 18.0887984 128.035742 0.583425769"></polyline>
                <path d="M157.29839,11.3365086 L155.761757,6.50198496 L154.681821,6.50198496 L153.145188,11.3365086 L157.29839,11.3365086 Z M158.773218,15.9838607 L151.67036,15.9838607 L151.0053,18.0887984 L144.526052,18.0887984 L150.819142,0.583425769 L159.624806,0.583425769 L165.937881,18.0887984 L159.437538,18.0887984 L158.773218,15.9838607 L158.773218,15.9838607 Z" id="Fill-11" fill="#1A1C1C"></path>
                <polyline id="Fill-12" fill="#1A1C1C" points="181.680599 5.83500044 175.491876 5.83500044 175.491876 18.0887984 169.198785 18.0887984 169.198785 5.83500044 163.030787 5.83500044 163.030787 0.583425769 181.680599 0.583425769 181.680599 5.83500044"></polyline>
                <path d="M195.512149,9.33592642 C195.512149,6.79388353 193.788988,5.43874627 191.774562,5.43874627 C189.780492,5.43874627 188.035865,6.79388353 188.035865,9.33592642 C188.035865,11.8783407 189.780492,13.2331066 191.774562,13.2331066 C193.788988,13.2331066 195.512149,11.8783407 195.512149,9.33592642 Z M181.805691,9.33592642 C181.805691,3.68809759 185.689095,-1.70530257e-13 191.774562,-1.70530257e-13 C197.880385,-1.70530257e-13 201.763788,3.68809759 201.763788,9.33592642 C201.763788,14.9833839 197.880385,18.6722242 191.774562,18.6722242 C185.689095,18.6722242 181.805691,14.9833839 181.805691,9.33592642 L181.805691,9.33592642 Z" id="Fill-13" fill="#1A1C1C"></path>
                <path d="M209.094994,9.10678976 L212.625698,9.10678976 C213.871807,9.10678976 214.474321,8.4817703 214.474321,7.46049667 C214.474321,6.43959442 213.871807,5.81420359 212.625698,5.81420359 L209.094994,5.81420359 L209.094994,9.10678976 Z M215.242637,18.0887984 L213.041314,13.7957355 L209.094994,13.7957355 L209.094994,18.0887984 L202.822999,18.0887984 L202.822999,0.583425769 L213.082765,0.583425769 C217.983929,0.583425769 220.767041,2.62560165 220.767041,7.41853161 C220.767041,9.71101237 219.770006,11.3781023 218.37808,12.4201728 L221.410636,18.0887984 L215.242637,18.0887984 L215.242637,18.0887984 Z" id="Fill-14" fill="#1A1C1C"></path>
                <path d="M221.431361,12.0870519 L227.059761,12.0870519 C227.101212,13.128751 227.973155,13.7329736 230.341021,13.7749387 C232.376171,13.7957355 233.248485,13.2539034 233.248485,12.628884 C233.248485,12.2953917 233.165583,11.7119659 231.58713,11.5032547 L229.302535,11.1489656 C226.021275,10.6283018 221.826252,10.3987937 221.826252,5.68905115 C221.826252,2.16732832 224.629719,-1.70530257e-13 230.403197,-1.70530257e-13 C235.553805,-1.70530257e-13 239.146684,1.33396904 239.001237,6.54357865 L233.393932,6.54357865 C233.207034,5.52230502 232.313996,4.89691419 230.25812,4.89691419 C228.492768,4.89691419 227.848803,5.39752395 227.848803,6.02291478 C227.848803,6.31407061 227.99425,6.89749638 229.177813,7.08541072 L231.005711,7.3773093 C234.515319,7.96073506 239.499754,7.89797316 239.499754,12.8992429 C239.499754,16.8175913 236.509389,18.6930211 230.341021,18.6723953 C224.089751,18.651056 221.244833,16.7759976 221.431361,12.0870519" id="Fill-15" fill="#1A1C1C"></path>
            </g>
            <g id="Group-2">
                <g id="Group-19" transform="translate(0.179419, 0.132948)">
                    <mask id="mask-2" fill="white">
                        <use xlink:href="#path-1"></use>
                    </mask>
                    <g id="Clip-17"></g>
                    <path d="M15.7528122,29.3051074 C15.7472941,29.2999659 15.7420159,29.2950582 15.7364978,29.2899167 C15.7391369,29.29202 15.7410562,29.2945908 15.7436953,29.2969278 C15.7465743,29.2994985 15.7496932,29.302303 15.7528122,29.3051074" id="Fill-16" fill="#303332" mask="url(#mask-2)"></path>
                    <path d="M23.6984147,6.99128439 C23.7036929,6.98918105 23.7089711,6.98731142 23.7142493,6.98520808 C23.7219266,6.98520808 23.7291242,6.98520808 23.7370415,6.98520808 C23.7334427,6.98520808 23.7164085,6.98824623 23.6984147,6.99128439 Z M14.3265,27.6990936 C14.3197823,27.6682447 14.3125848,27.6373958 14.3058671,27.6067806 C14.306107,27.6063131 14.3058671,27.6058457 14.306107,27.6051446 C14.3125848,27.6350587 14.320742,27.6729188 14.3265,27.6990936 Z M10.4427083,7.23924432 C10.4537445,7.25466878 10.4662203,7.27219658 10.4806153,7.29463216 C10.4683795,7.27593584 10.455424,7.25770693 10.4427083,7.23924432 Z M23.7547954,32.0219163 C23.7547954,31.9847574 23.6794612,31.9144125 23.6410743,31.915581 C23.416751,31.9230595 23.1931475,31.9562455 22.9685843,31.9651262 C21.700618,32.0142041 20.463601,31.8613616 19.2604125,31.4502763 C18.1198426,31.0602244 17.1021107,30.4843778 16.212255,29.7246061 C16.0565483,29.5871881 15.9037206,29.4469658 15.7528122,29.3051074 C15.7638484,29.3156241 15.7748846,29.3266082 15.7861608,29.3371249 C15.7722455,29.32357 15.7576105,29.3104826 15.7436953,29.2969278 C15.645089,29.2041473 15.5472025,29.1106657 15.4502757,29.0167167 C15.5448033,29.1087961 15.6402907,29.1994732 15.7364978,29.2899167 C15.674359,29.2289199 15.6124602,29.1669884 15.5517609,29.1036546 C15.101195,28.636714 14.715407,28.0898467 14.3025082,27.589019 C14.0570721,27.1431118 13.7929225,26.7058517 13.5707585,26.2494278 C13.1578597,25.4015497 12.8920306,24.5022568 12.8015815,23.5714138 C12.732965,22.8651603 12.732965,22.1481565 12.765114,21.4386312 C12.8130976,20.3764466 13.0813259,19.352122 13.5174967,18.379446 C13.7581344,17.8430954 14.0707475,17.3373599 14.3512115,16.8180697 C14.4752491,16.6350794 14.7765861,16.2553105 14.8051363,16.2221245 C15.1976421,15.7654669 15.1959626,15.7813588 15.618938,15.3532131 C16.3444498,14.6189151 17.2146322,14.0708793 18.1503122,13.6205317 C19.071837,13.2232349 20.022152,12.8937123 21.0226098,12.7803659 C21.8618428,12.6852483 22.7135515,12.6875854 23.559982,12.6702913 C23.7425596,12.6667857 23.7927024,12.6343009 23.7564748,12.4714092 C23.7564748,10.7384941 23.7562349,9.00581276 23.755995,7.27289769 C23.755995,7.17006794 23.7557551,7.06723818 23.7557551,6.96417472 C23.7557551,6.84638791 23.755995,6.7286011 23.755995,6.61058059 C23.755995,6.31704838 23.755995,6.02304876 23.755995,5.72904915 C23.755995,5.20742185 23.755995,4.68602825 23.755995,4.16440095 C23.755995,3.26090133 23.755995,2.35763542 23.755995,1.45436951 C23.755995,1.09446537 23.755995,0.734561226 23.755995,0.374890788 C23.755995,0.257337683 23.755995,0.140018281 23.755995,0.0226988789 C23.7228863,0.0154540553 23.6897776,0.00119811208 23.656669,0.00187428518 C22.6264613,0.0245685109 21.5960137,0.0472377977 20.5658061,0.0734126443 C20.2879811,0.0801900599 20.010396,0.097016747 19.7330509,0.109169354 C19.7083393,0.122023074 19.6605957,0.136512721 19.6617953,0.1470294 C19.6725916,0.267854362 19.6908253,0.387978212 19.7068998,0.508335765 C19.7167365,0.860527675 19.7258534,1.21271958 19.7354501,1.56491149 C19.6985027,2.31253055 19.595338,3.047997 19.2786463,3.73812488 C18.7697803,4.84564807 18.0341919,5.23756966 16.9689562,5.21326445 C16.174348,5.19503554 15.4949004,4.85663216 14.9634821,4.28779666 C14.6120024,3.91176694 14.3164234,3.48619198 13.9956532,3.08258519 C13.7950817,2.72455068 13.5949902,2.36628247 13.3905801,2.01011759 C13.3826628,1.99632906 13.3356389,2.00380758 13.3066088,2.00147054 C12.9042664,2.24826195 12.5004845,2.49271633 12.0998215,2.74207848 C11.0235496,3.41187411 9.94847734,4.08330567 8.87268527,4.75450352 C8.86404822,4.78815689 8.83645766,4.83396287 8.84965315,4.85406142 C8.96193474,5.0232631 9.08237355,5.1870896 9.19849384,5.35395425 C9.55453207,5.86506487 9.92352587,6.36986548 10.0761137,6.98497438 C10.1689619,7.43859382 10.180478,7.82934689 10.1651232,8.24907925 C10.1399319,8.94434861 9.8690645,9.55268009 9.28078569,9.97848876 C8.36621849,10.6401047 7.34080919,10.5968695 6.29596654,10.3818618 C6.24342451,10.37228 6.1911224,10.3626981 6.13882028,10.35335 C6.0949153,10.339094 6.0507704,10.3250718 6.00686541,10.3110495 L5.83172531,10.232525 C5.63811153,10.1439512 5.46441094,10.0544426 5.2940692,9.97147764 L5.00544791,9.82517894 L4.79312053,9.70412027 C4.79120119,9.70318546 4.78976168,9.70225064 4.78784234,9.70108212 L4.78664275,9.70061471 L4.78448348,9.6996799 C4.5721561,9.58306161 4.38789912,9.41736548 4.19068657,9.27433864 C4.16957379,9.30331794 4.14534208,9.33089501 4.1283079,9.36197764 C3.33705852,10.7964527 2.54892807,12.2325637 1.75240049,13.6640006 C1.66579012,13.8196475 1.67394733,13.8119353 1.86156316,13.906118 C2.59499232,14.131876 3.23629298,14.5067372 3.78234623,15.0351419 C3.80849728,15.0655235 3.83464834,15.0963724 3.86103931,15.1267539 C4.20988001,15.5280236 4.49946097,15.9610771 4.62589772,16.4817696 C4.66908295,16.6519061 4.7125081,16.8222763 4.75569333,16.9926465 C4.81927159,17.6638444 4.69979245,18.294144 4.30968587,18.8629796 C3.7178083,19.6818783 2.86921853,20.0630495 1.879557,20.1280192 C1.29343746,20.1665804 0.699880468,20.0943659 0.109442405,20.076137 C0.0847308569,20.0754358 0.0585798008,20.1182037 0.0331484986,20.1406393 C0.0487431651,20.5835083 0.0604991444,21.0268448 0.0808921697,21.4694801 C0.137272887,22.6875453 0.205409583,23.9053768 0.248834731,25.1241431 C0.256991941,25.3536404 0.284342587,25.2903066 0.509865456,25.2996548 C1.01945117,25.2849314 1.52903689,25.2702081 2.03886252,25.2557184 C2.20584541,25.2774529 2.37330814,25.2989537 2.54053094,25.3206881 C2.67512491,25.3501348 2.81643658,25.363456 2.94359309,25.4118327 C3.34665524,25.5651425 3.74467911,25.7315398 4.14462232,25.8927955 C4.50545891,26.1533755 4.83102757,26.442701 5.02560102,26.8502807 C5.45937266,27.7600904 5.19858186,28.9919441 4.35862913,29.7500798 C3.91765995,30.1480777 3.41767095,30.4843778 2.94407293,30.8482549 C2.64081664,31.0333484 2.33660069,31.2170398 2.03646334,31.4070411 C2.01750982,31.41896 2.01415097,31.4881364 2.03070531,31.5133764 C2.128112,31.6627133 2.23367589,31.8064412 2.33636077,31.9522725 C2.36515093,31.9966763 2.39394108,32.0413137 2.42273123,32.0859512 C3.23749257,33.3465505 4.07000784,34.6277158 4.8876482,35.8862117 L6.3396316,34.9696247 C6.54380178,34.854876 6.84249962,34.7265725 7.07809904,34.6884788 C7.17334646,34.6693151 7.26547495,34.6510861 7.35664377,34.6319224 C7.93580569,34.5671864 8.8436552,34.5748986 9.31245486,34.8219238 C10.3673741,35.3786067 10.689104,36.3117867 10.6461587,37.4038854 C10.6324834,37.7471966 10.5732237,38.0778877 10.4762968,38.4289111 C10.2015908,39.0748689 9.94295922,39.7170875 9.46600235,40.2508674 L9.30861618,40.4420373 C10.566506,41.3553524 11.9609091,42.0630081 13.3747455,42.7127052 C13.5635609,42.7984746 13.7523764,42.8842439 13.9411918,42.9695459 C14.0628302,43.0162867 14.0613907,43.0062374 14.1024166,42.8606398 C14.086822,42.8379705 14.0709874,42.8148338 14.0556326,42.7921646 C14.0549129,42.7895938 14.054433,42.7874905 14.0537133,42.7851534 C14.069068,42.8073553 14.083943,42.8297909 14.0995376,42.8522265 C14.1400838,42.7234556 14.1748719,42.5921139 14.2216559,42.4659138 C14.7046107,41.1665196 15.5323276,40.2048277 16.9627184,39.8519347 C17.5332433,39.7112449 18.0992097,39.7512083 18.6524605,39.9556993 C19.1243791,40.1302761 19.4921733,40.4375969 19.8158226,40.803811 C19.8160625,40.803811 19.8165423,40.803811 19.8167823,40.803811 C19.8179818,40.8059144 19.8187016,40.8080177 19.8196613,40.8098873 C19.8206209,40.811757 19.8218205,40.8138603 19.8227802,40.8157299 C19.8230201,40.8157299 19.8230201,40.8157299 19.8230201,40.8152625 C19.9355416,40.9989539 20.045664,41.1863845 20.1581855,41.3698421 C20.3021363,41.0879951 20.4477664,40.8047458 20.5919571,40.5228988 C20.5919571,40.5224314 20.5919571,40.5214966 20.5919571,40.5210292 C20.5919571,40.5214966 20.5919571,40.5224314 20.5919571,40.5228988 C20.6862449,40.5301437 20.7836516,40.5250022 20.8741006,40.5472041 C20.7836516,40.5250022 20.6862449,40.5301437 20.5919571,40.5228988 C20.4482463,40.8047458 20.3038157,41.0865929 20.1593851,41.3682062 C20.2339996,41.5647512 20.3985833,41.8585171 20.4252142,42.05366 C20.478236,42.3235881 20.5159031,42.6206258 20.5252599,42.9489799 C20.5389353,43.4142846 20.4796755,43.9520375 20.4592825,44.4187443 C20.4592825,44.4498269 20.5099052,44.5077855 20.5394151,44.5089541 C21.4758148,44.5512545 22.4119747,44.5898156 23.3486143,44.6237027 C23.4832083,44.6286105 23.6180422,44.6218331 23.7593538,44.6332846 C23.6960155,44.3804169 23.6309977,44.0917924 23.5590224,43.8412618 C23.6309977,44.0917924 23.6960155,44.3628891 23.7593538,44.6159905 C23.7600736,43.4998202 23.7552752,42.3663559 23.755995,41.2504194 C23.7557551,40.9638983 23.7557551,40.6771435 23.7555152,40.3908561 C23.7569547,39.9722922 23.7593538,39.5539621 23.7593538,39.1358657 C23.7598337,36.7644713 23.7600736,34.3930769 23.7547954,32.0219163 L23.7547954,32.0219163 Z" id="Fill-18" fill="#303332" mask="url(#mask-2)"></path>
                </g>
                <path d="M46.271038,28.9888309 C46.1875754,28.6263741 46.0167454,28.2893898 45.8044281,27.9809159 C45.4732619,27.5235801 45.171869,27.045913 44.8265484,26.5974574 C44.6457126,26.3618956 44.4355917,26.1445617 44.2991718,25.8811905 C44.1446926,25.5904772 43.9684937,25.3102801 43.8267048,25.0132572 C43.725183,24.796157 43.5731443,24.6035946 43.4874852,24.3790162 C43.3564342,24.045771 43.1748663,23.7333244 43.0569936,23.3958727 C42.905443,23.028742 42.7209466,22.6749319 42.5745209,22.305698 C42.4349284,22.0072729 42.3573228,21.6875818 42.2394501,21.3812112 C42.1672134,21.1764967 42.1267023,20.9633693 42.0918042,20.7500082 L42.0727688,20.7986162 C42.0500728,20.4929467 42.0422635,20.1842391 42.0952208,19.8811402 C42.1198691,19.7037677 42.1088872,19.5179823 42.1867368,19.3506586 C42.2792291,19.141504 42.381239,18.9363222 42.4844691,18.7320751 C42.5674437,18.5411485 42.6472457,18.3420426 42.6333353,18.1307848 C42.6130797,17.8071209 42.7241192,17.4860276 42.6470017,17.1642333 C42.6213772,16.4661944 42.5049687,15.7742314 42.3407279,15.0948879 C42.0356743,13.732228 41.5861474,12.3973774 40.9667666,11.1349715 C40.6800163,10.4642746 40.2507449,9.86321795 39.9029838,9.22196623 C39.4393024,8.39329327 38.8919143,7.60878816 38.2840035,6.87125521 C36.6891835,4.93745128 34.6445925,3.35792491 32.3767022,2.20021317 C32.0775057,2.06817701 31.789047,1.91510854 31.4949754,1.77278992 C30.6418016,1.39233883 29.7639795,1.06049574 28.8668779,0.788010494 C28.4210116,0.631202949 27.9526934,0.550345407 27.4982856,0.422749402 C26.7149081,0.234627087 25.9205486,0.0965149271 25.1208201,0 L25.1208201,44.6550965 C25.1747536,44.5204897 25.2301513,44.3868177 25.2889657,44.2540804 C25.4063503,44.0510018 25.4666289,43.8016521 25.6796783,43.6663443 C26.2004657,43.3183764 26.7729903,43.0484618 27.3416101,42.7813515 C27.4062815,42.749803 27.4751015,42.7266675 27.5431895,42.7023635 C27.6198189,42.6782932 27.699865,42.6577282 27.7952858,42.6306199 C27.9073014,42.6366959 28.0029662,42.6483805 28.0937502,42.6551576 C28.1198628,42.6609999 28.1396302,42.6633368 28.1469515,42.6588967 C28.2723895,42.7091405 28.3934348,42.7748081 28.5188728,42.8220139 C29.2170794,43.1157652 29.9162622,43.4085816 30.6205699,43.690882 C31.5960092,44.0407194 32.5753531,44.3837797 33.5271202,44.7918065 C33.8629232,44.9920808 34.2599809,45.0600852 34.596516,45.2575553 L34.6184799,45.2507782 C34.7793041,45.3463583 34.9701456,45.3734666 35.1409756,45.4501177 C35.5592651,45.6354357 36.0041552,45.7571894 36.4478251,45.8712313 C36.9432321,45.932225 37.4459604,46.0574841 37.9464923,45.9698494 C38.434578,45.9235784 38.9621986,45.7398962 39.249193,45.3379454 C39.3597444,45.1320625 39.4007436,44.9028103 39.402696,44.6735582 C39.511295,43.8339017 39.7143387,43.0038265 40.0459929,42.2186204 C40.1953472,41.8344302 40.3930219,41.4705713 40.6265709,41.1275109 C40.7217476,41.1062449 40.7729966,41.0190777 40.8291264,40.9506058 C40.9980041,40.7106038 41.2357018,40.5271554 41.4448466,40.3208051 C41.680836,40.1238024 41.8987663,39.9027295 42.1718502,39.7515306 C42.6142999,39.4687629 42.9400971,39.0609698 43.3247087,38.7158062 L43.3347144,38.7356701 C43.3435,38.7073933 43.3615591,38.6508398 43.3705887,38.6227967 C43.394993,38.6097099 43.4440456,38.5840038 43.469182,38.5706833 C43.5099372,38.4465927 43.5765609,38.3260074 43.5797334,38.194205 C43.5299487,37.7134999 43.252716,37.2965928 43.1204448,36.8380884 C43.0284406,36.6434227 42.9730429,36.4333334 42.8563904,36.2501186 C43.2248951,36.1914618 43.5555732,36.0185295 43.8945487,35.8771456 C44.1146754,35.7846035 44.2630534,35.5826933 44.3267486,35.3655932 C44.2942909,35.2693119 44.2667141,35.1713948 44.249387,35.0727767 C44.1732457,34.847731 44.0268199,34.6544674 43.930179,34.4380683 C43.5955962,33.7809256 43.5172585,33.0342786 43.5167704,32.3128704 C43.4664976,32.0483307 43.4135403,31.7515415 43.5570375,31.5052298 C43.7429981,31.4145571 43.9038223,31.2808851 44.0985685,31.206571 C44.4758588,31.0670567 44.8690118,30.9728787 45.2519151,30.8515924 C45.582105,30.757648 45.7895415,30.4730108 45.9718415,30.2122102 C46.2322352,29.8630739 46.3364415,29.4115803 46.271038,28.9888309" id="Fill-1" fill="#4D8FBF"></path>
                <path d="M9.28502187,22.3790231 C8.57328875,22.3729531 7.86179954,22.3645484 7.15031032,22.3570775 C6.43272333,22.3498401 5.71538024,22.3426027 4.99803716,22.3351319 C4.29410919,22.3278945 3.59042514,22.321591 2.88625327,22.3124859 C2.63453682,22.3092174 2.38208864,22.2877387 2.13061611,22.2966103 C2.03256378,22.3001123 1.93670664,22.3645484 1.83962995,22.4009688 C1.4559575,23.0703101 1.07301679,23.7401184 0.687636959,24.4085259 C0.562754382,24.625414 0.42933491,24.8380997 0.302257131,25.0542874 C0.287134632,25.0802019 0.288598099,25.1152215 0.282256406,25.1460388 C0.309086647,25.1486069 0.335916888,25.1525758 0.362991041,25.1532762 C0.412505031,25.1551439 0.462019022,25.154677 0.511533012,25.1553774 C1.02960058,25.1406691 1.54766814,25.1259609 2.06597962,25.1114861 C2.23574187,25.1331983 2.39574768,25.1294629 2.56575384,25.151175 C2.69795376,25.2102414 2.8611304,25.2207473 2.98576907,25.2674401 C3.39554003,25.4205925 3.80018885,25.5868189 4.20678896,25.7479091 C4.6185112,25.9631629 5.03218474,26.1742144 5.44098005,26.393904 C6.4429676,26.9325055 7.44324777,27.4741421 8.44304012,28.0162456 C8.91110588,28.2697875 9.37648861,28.5279987 9.84284698,28.7843422 C9.85089605,28.7848091 9.85870121,28.7850426 9.86675029,28.7852761 C10.7136103,26.6784967 11.5609581,24.5721842 12.4075741,22.4656383 C12.4156232,22.4455604 12.4156232,22.4226809 12.4192819,22.4012022 C11.3746098,22.3939648 10.3296939,22.3874278 9.28502187,22.3790231" id="Fill-20" fill="#373A39"></path>
                <path d="M10.2697478,6.76636438 C10.1162211,6.14558662 9.74495704,5.63613374 9.38672822,5.12031271 C9.26989348,4.95191023 9.14871365,4.78657391 9.03574122,4.61581285 C9.02246454,4.59552908 9.05022486,4.54930095 9.05891505,4.51533742 C9.10598689,4.53208333 9.15257595,4.55873526 9.20109616,4.56345242 C9.47773379,4.59034021 9.75509559,4.61085984 10.032216,4.63515319 C10.7786065,4.70072166 11.5247556,4.76676185 12.2711461,4.83256618 C12.3088036,4.83987777 12.3462197,4.84718936 12.3841186,4.8542651 C12.3995678,4.89105892 12.4227416,4.92667345 12.4292593,4.96464655 C12.5180923,5.46891056 12.6045114,5.97341042 12.6914132,6.47767442 C12.8393878,7.33784786 12.9868796,8.1980213 13.135337,9.05819474 C13.273173,9.85751686 13.4114918,10.656839 13.5628459,11.5321073 C13.5848127,11.3134671 13.6009861,11.1714807 13.6128145,11.0292585 C13.6673695,10.3759323 13.7178209,9.72237033 13.7757555,9.06928005 C13.8397249,8.34708343 13.9109361,7.62559439 13.9768367,6.90339777 C14.0318746,6.30219621 14.0835329,5.70075879 14.1366396,5.09908551 C14.1443642,5.09908551 14.1520888,5.09908551 14.1595721,5.09884965 C14.6107376,5.15804996 15.0619031,5.21772199 15.5130687,5.27668644 C16.3449127,5.38470932 17.1765153,5.4927322 18.0083593,5.6000475 C18.7281965,5.69297548 19.4482751,5.78496002 20.1681122,5.87741629 C20.2895334,5.89958692 20.4109547,5.92199341 20.5323759,5.94416405 C21.4694677,6.15903051 22.4065596,6.37224598 23.3431686,6.59017859 C23.5616303,6.64112388 23.7757468,6.70739993 23.9917945,6.76660024 C23.9567924,6.78051585 23.921066,6.79207288 23.8870295,6.80787535 C22.747408,7.33454585 21.6075451,7.86074463 20.4684065,8.38883027 C18.6449155,9.23414466 16.8223902,10.0811101 14.9988993,10.9261886 C14.5303534,11.1431778 14.0601177,11.3559215 13.5903648,11.5705521 C13.5522245,11.5257392 13.509015,11.4839923 13.477151,11.4351698 C13.2883808,11.1450647 13.1032315,10.8530727 12.9159097,10.5617883 C12.1697606,9.40066028 11.4233701,8.23953227 10.6767382,7.07887598 C10.5263497,6.84514089 10.5693178,7.03995944 10.3969625,6.7746194 C10.42424,6.94372945 10.2494707,6.64135974 10.2697478,6.76636438" id="Fill-21" fill="#4E514F"></path>
                <path d="M22.5805125,7.90184049 C21.7335581,8.37202975 20.8868815,8.84245659 20.0402048,9.31288344" id="Fill-22" fill="#3E403F"></path>
                <path d="M12.4540999,16.800768 C13.048032,16.891848 13.6419641,16.9812412 14.2344095,17.0790678 C14.2564621,17.0826821 14.2643911,17.1677382 14.2787624,17.2147239 C14.4068654,17.0260583 14.7180789,16.634511 14.7475649,16.6002958 C15.1529353,16.1294751 15.1512008,16.1458599 15.5880395,15.7044354 C16.3373305,14.9473636 17.2360338,14.3823306 18.2023814,13.9180157 C18.3034762,13.8669338 18.4080399,13.8213939 18.5046747,13.7630834 C19.9675763,12.8811983 21.610615,12.4111006 23.1991417,11.8157076 C23.2308577,11.803901 23.2630693,11.7923353 23.2952809,11.7805286 C23.3200591,11.5523469 23.3349259,11.3227194 23.3713498,11.0959834 C23.5609026,9.92037752 23.7556588,8.74549451 23.9496717,7.57012961 C23.9605741,7.5041087 23.9774232,7.4390516 23.9917945,7.3735126 C23.9917945,7.26749363 23.9915467,7.16147465 23.9915467,7.05521472 C23.9848566,7.06244329 23.9786621,7.06991281 23.9722198,7.07690042 C23.8084363,7.19062987 23.6451483,7.30435931 23.4816125,7.41784781 C23.3728365,7.48603728 23.2633171,7.55446771 23.1545411,7.62241624 C23.1312496,7.63735528 23.1079581,7.65277622 23.0844189,7.6674743 L19.4866325,9.91724514 C18.8012691,10.3487906 18.116649,10.7815407 17.4302944,11.2116404 C16.4748492,11.8104067 15.5161829,12.403872 14.5632155,13.0057706 C13.8877633,13.432497 13.219249,13.8695843 12.5477613,14.3018526 L11.7766655,14.7791789 C11.3138098,15.0736225 10.8526885,15.3711985 10.3868594,15.6620279 C10.0981941,15.8425011 9.60684349,16.1829665 9.3144614,16.3576569" id="Fill-23" fill="#3E403F"></path>
                <path d="M12.1367866,22.5766871 C11.1136627,22.569607 10.0902999,22.563212 9.06717594,22.5549899 C8.37012351,22.5490517 7.67330995,22.5408295 6.97649639,22.533521 C6.27371083,22.5264408 5.57116414,22.5193607 4.86861746,22.5120521 C4.17920919,22.504972 3.4900398,22.4988054 2.80039264,22.4898981 C2.55386827,22.4867006 2.30662726,22.4656885 2.06034177,22.4743674 C1.96431193,22.4777933 1.87043201,22.5408295 1.77535768,22.5764587 C1.76150263,22.5447122 1.75361959,22.509083 1.73283701,22.4821328 C1.15618019,21.7307225 0.578090096,20.9802258 0,20.2292723 C0.0253213017,20.2073466 0.0513592441,20.1655509 0.0759639052,20.1662361 C0.66384809,20.1840506 1.25483772,20.2546238 1.83842206,20.2169391 C2.8238029,20.1534461 3.66872219,19.7809385 4.25803966,18.9806523 C4.28049439,18.9639796 4.30892114,18.9514181 4.32420947,18.9301776 C4.60178827,18.5400837 4.72433382,18.1031695 4.75061064,17.6365643 C4.75849369,17.4956463 4.77927626,17.3551851 4.79408684,17.2147239 C5.1758174,17.4899365 5.55850349,17.7637787 5.93927854,18.0408184 C7.72610247,19.3401415 9.51268753,20.6401498 11.2980782,21.9413001 C11.5818679,22.1482234 11.8572967,22.3647392 12.1370255,22.5766871 L12.1367866,22.5766871" id="Fill-24" fill="#3B3E3D"></path>
                <path d="M19.9893633,40.8588738 C19.6612047,40.4947306 19.2882861,40.1891477 18.8097924,40.015558 C18.2488333,39.8122234 17.6749814,39.772486 17.0965075,39.9123803 C15.6461875,40.2632777 14.8069382,41.2195313 14.3172544,42.5115774 C14.2698186,42.6370639 14.2345458,42.7676628 14.1934348,42.8957055 C14.1776228,42.872932 14.1615676,42.8499262 14.1459989,42.8276175 C14.0749668,42.5710673 14.0075836,42.31382 13.9326593,42.0584317 C13.8382742,41.7375116 13.7380508,41.4182182 13.6405033,41.09846 C13.6096092,41.0689475 13.5789583,41.0396673 13.5483075,41.0106195 C13.5864994,40.9843603 13.6543691,40.9618192 13.6587478,40.9313771 C13.7640797,40.1840353 13.8616272,39.4355316 13.9620939,38.6872602 C14.0579386,37.9757053 14.1552428,37.2634533 14.2523039,36.5521307 C14.3539868,35.8078099 14.4563995,35.0632567 14.5580825,34.3191682 C14.6549003,33.6108667 14.7534208,32.9030299 14.8463464,32.1942636 C14.8801596,31.9346924 14.899134,31.6734946 14.9249196,31.4127615 C14.9249196,31.3909176 14.9249196,31.3690736 14.9249196,31.3469973 C14.9251628,31.3397935 14.9251628,31.3325896 14.9251628,31.3253858 C14.9404883,31.3253858 14.9558137,31.3253858 14.9711391,31.3251534 C14.9862213,31.3325896 15.0015467,31.3397935 15.0168721,31.3474621 C15.053118,31.4109025 15.0910666,31.473181 15.1251231,31.5377833 C15.8609866,32.9260357 16.5983097,34.3142882 17.3312541,35.7041673 C18.2361837,37.4210085 19.1372212,39.139244 20.0402048,40.8570147 C20.0231766,40.8574795 20.0061483,40.8581766 19.9893633,40.8588738" id="Fill-25" fill="#343635"></path>
                <path d="M12.5207392,16.5277016 C13.1308406,16.6162045 13.7409421,16.7030685 14.3495164,16.7981271 C14.3721693,16.8016392 14.3803141,16.8842887 14.3950767,16.9299449 C14.0975345,17.4501921 13.7658857,17.9568595 13.5105951,18.4941985 C13.0478648,19.4686668 12.7633035,20.494879 12.7123981,21.5590209 C12.6782915,22.2698537 12.6782915,22.9881787 12.7510862,23.6957336 C12.8470429,24.6282919 13.1290589,25.529242 13.5671001,26.3786825 C13.8027922,26.8359474 14.0830265,27.2740133 14.3434077,27.7207422 C12.744214,28.1695783 11.1447657,28.6184144 9.54531747,29.0674847 C9.52139193,29.0674847 9.49695733,29.0674847 9.47328631,29.0674847 C10.3570044,26.9546537 11.2412315,24.842291 12.124695,22.7296941 C12.1330944,22.7095585 12.1330944,22.6866133 12.1369123,22.6650729 L12.1371669,22.6650729 C12.1330944,22.6210556 12.1397121,22.5732922 12.1231679,22.5339575 C11.6894537,21.5068089 11.2537033,20.4803626 10.8171894,19.4541505 C10.4460889,18.5815307 10.0569169,17.7416897 9.68937981,16.8676651 C9.58578728,16.6213555 9.40660021,16.3357112 9.3144614,16.0858896 C9.95510609,16.1779045 10.7064701,16.2713242 11.3471148,16.3621684" id="Fill-26" fill="#303332"></path>
                <path d="M9.9184836,15.9792174 C9.87329312,16.0147748 9.82834174,16.0503322 9.78315126,16.0858896 C9.66288241,15.6811693 9.54333087,15.2762226 9.42306202,14.8715023 C9.32526886,14.5431059 9.2272366,14.2149359 9.12968254,13.8865395 C9.05173493,13.5909828 8.97856939,13.2947465 8.89536152,13.0005487 C8.69762327,12.2993657 8.49605937,11.5993151 8.29210444,10.899944 C8.28493135,10.8752577 8.23926266,10.8440034 8.21176581,10.8440034 C7.8385259,10.8442299 7.46432957,10.8666514 7.09252428,10.8469476 C6.89024307,10.8363031 6.69202662,10.756129 6.49189734,10.7074358 C7.53319126,10.9157976 8.55511783,10.9576965 9.46657878,10.3165308 C10.0528595,9.90388374 10.3228069,9.31435556 10.3479127,8.64057671 C10.3632153,8.23381812 10.3517384,7.85514309 10.2592055,7.41554486 C10.2391208,7.29551031 10.2003861,7.20808892 10.1389366,7.05521472 C10.3094171,7.31000504 10.5133721,7.49118927 10.6623333,7.71563123 C11.4018791,8.83014071 12.1411859,9.94510315 12.8802535,11.0600656 C13.0657975,11.3397687 13.2491895,11.6201513 13.4361681,11.8987221 C13.4677298,11.9456035 13.5105292,11.9856905 13.5483075,12.0287218 C13.5071818,12.0515963 13.4560137,12.0663175 13.4258867,12.0987042 C13.101902,12.4502016 12.7812648,12.8046432 12.4596712,13.1581789 C11.8090717,13.8731772 11.1572767,14.5872695 10.5088291,15.3038531 C10.3079825,15.5255773 10.1152654,15.7538695 9.9184836,15.9792174" id="Fill-27" fill="#494C4A"></path>
                <path d="M9.74974942,40.2105046 C10.2135099,39.6798833 10.4649856,39.041465 10.7320911,38.3993296 C10.7530863,38.3744712 10.7782805,38.3526331 10.7946101,38.3252192 C11.4841855,37.1664017 12.1721279,36.006655 12.8617033,34.8478376 C13.5603767,33.6732223 14.2602164,32.499304 14.9595895,31.3251534 C14.9346286,31.5855853 14.9164327,31.8469465 14.8840068,32.1062168 C14.7951272,32.814796 14.7004155,33.5226783 14.6075701,34.2305605 C14.5100591,34.9749172 14.4118483,35.7188092 14.3145706,36.4629336 C14.2212586,37.1743007 14.1281799,37.8861324 14.0365009,38.5977318 C13.9399231,39.3458056 13.8461445,40.0938794 13.7453676,40.8412562 C13.7411686,40.8716903 13.6758502,40.8939931 13.6392253,40.9202454 C13.1612347,40.8428825 12.656417,40.8888821 12.1781932,40.8112868 C11.5931272,40.7162675 10.6894009,40.5780365 9.59671781,40.4005432" id="Fill-28" fill="#282B2B"></path>
                <path d="M10.0302346,29.0683582 C10.0527799,29.0683582 10.0760525,29.0683582 10.0988403,29.0683582 C10.1950823,29.1166233 10.2881727,29.1710034 10.3878086,29.211843 C11.4311975,29.6396767 12.4755562,30.0659815 13.5199148,30.4914128 C14.0779727,30.7185425 14.6372428,30.942833 15.1957855,31.1684339 C15.2113006,31.1821927 15.2263308,31.1957332 15.2418459,31.209492 C15.2263308,31.209492 15.2113006,31.209492 15.196028,31.2099288 C15.104392,31.2164806 15.0129985,31.2234692 14.921605,31.2302394 C14.8607568,31.2302394 14.7996662,31.2302394 14.738818,31.230021 C14.4214862,31.2507684 14.1046393,31.274355 13.7875499,31.2913897 C12.8745846,31.3403099 11.9618617,31.3848623 11.0496236,31.4350929 C9.95362887,31.4949328 8.85811898,31.560451 7.76236666,31.6207277 C6.97424923,31.6641881 6.18588937,31.7028438 5.39752952,31.7439018 C4.45765524,31.7923853 3.51753854,31.8408687 2.57766426,31.8895706 C2.47390718,31.7532928 2.36724103,31.6189805 2.26881725,31.4794268 C2.25209006,31.4558403 2.25548399,31.3911957 2.27463541,31.3800576 C2.57790668,31.2025034 2.88529915,31.0308458 3.19172192,30.8578778 C3.20699457,30.857441 3.2229945,30.8604985 3.23705503,30.8567858 C4.7471084,30.4564698 6.25691933,30.0550618 7.76721512,29.6551826 C8.51315093,29.4577545 9.25981402,29.263384 10.0064771,29.0674847 C10.0144771,29.0679215 10.0222346,29.0681398 10.0302346,29.0683582" id="Fill-29" fill="#272A29"></path>
                <path d="M20.6330194,6.05121803 C20.5165448,6.02928572 20.4000702,6.00712008 20.2835956,5.98518777 C20.2979523,5.94552295 20.3268973,5.90515817 20.3252764,5.86619332 C20.2988786,5.20659072 20.2659971,4.54698812 20.2409886,3.88761885 C20.2148223,3.19418449 20.1979185,2.50075014 20.17291,1.80778243 C20.167121,1.64515667 20.1460491,1.48346421 20.1321555,1.32153842 C20.1157147,1.01378609 20.0999687,0.706033767 20.0837595,0.398514764 C20.068245,0.278353696 20.0506464,0.158425951 20.0402048,0.0377982387 C20.0390684,0.027298728 20.0851488,0.0128327354 20.1089995,0 C20.5165448,0.191091096 20.9240901,0.382415514 21.3316353,0.573506609 C21.355486,0.598472113 21.386515,0.619471134 21.4015664,0.648869764 C21.7155615,1.25667478 22.0244623,1.86727966 22.3412361,2.47368473 C22.6024356,2.9729948 22.8754446,3.46600516 23.1378019,3.96461526 C23.4256308,4.51152311 23.7072075,5.06169747 23.9917945,5.61070522 C23.9917945,5.90422488 23.9917945,6.19774453 23.9917945,6.49079755 C23.3371749,6.40633482 22.6823237,6.32257205 22.0277041,6.23694271 C21.5625005,6.17627887 21.0977599,6.1132818 20.6330194,6.05121803" id="Fill-30" fill="#444645"></path>
                <path d="M5.7601731,12.6993865 C6.61815382,13.5490032 7.57526001,14.5262752 8.43110645,15.3777831 C8.69409723,15.6394764 8.96017085,15.8983329 9.22482162,16.1586078 C9.25470155,16.1881577 9.28458147,16.2179439 9.3144614,16.2477301 C9.3144614,16.2550585 9.3144614,16.2626233 9.3144614,16.270188 C9.27628149,16.2768072 9.23810159,16.2827171 9.20063311,16.2907547 C7.68813973,16.6108385 6.17564635,16.9309222 4.66362725,17.2519516 C4.63635589,17.2578615 4.61193024,17.2760642 4.58608173,17.288357 C4.60434168,17.3129424 4.62260164,17.3377643 4.64109874,17.3623497 C4.62639592,17.5077349 4.60576454,17.6531201 4.59793884,17.798978 C4.57185319,18.2819405 4.45019921,18.7341711 4.1746399,19.1379399 C4.15946279,19.159925 4.13124286,19.1729269 4.10895149,19.190184 C4.49454481,18.6147898 4.61264166,17.9772226 4.54979896,17.2982857 C4.50711335,17.1259511 4.4641906,16.9536165 4.421505,16.7815183 C4.29653102,16.2548221 4.0103003,15.8167754 3.66549545,15.4108789 C3.6394098,15.3801471 3.61356129,15.3489425 3.58771278,15.3182107 C3.57063854,15.2870061 3.56091571,15.2463455 3.53554149,15.2260152 C3.30527634,15.0416243 3.06979407,14.8631433 2.84284892,14.67497 C2.81842327,14.6548761 2.81557756,14.5579526 2.83692037,14.5418775 C2.94458296,14.4607928 3.06315409,14.393892 3.17887952,14.323918 C3.47459592,14.1452006 3.77197233,13.9688472 4.06674016,13.7887115 C4.3294938,13.6281968 4.58963886,13.4631905 4.85168107,13.3014938" id="Fill-31" fill="#414442"></path>
                <path d="M8.24635263,34.5172518 C8.63136176,34.3671164 8.99115194,34.1591307 9.36559313,33.9837432 C10.1834073,33.60037 11.003383,33.2213585 11.8223981,32.8407401 C12.4122811,32.5827093 13.0036051,32.3272037 13.592047,32.0664181 C14.1435011,31.8219316 14.6920731,31.5726242 15.2418459,31.3251534 C15.2418459,31.3467325 15.2418459,31.3683116 15.2418459,31.3901202 C14.5217852,32.5503407 13.8012441,33.7103316 13.0819039,34.8710111 C12.3719308,36.0160803 11.6636389,37.1620678 10.9536657,38.3071369 C10.9368531,38.3342256 10.9109136,38.3558047 10.8892974,38.3803681 C10.9863302,38.0355618 11.0456548,37.7107276 11.0593451,37.3734969 C11.1023373,36.3007407 10.7802555,35.3840884 9.72418241,34.8372651 C9.21379914,34.573036 8.18198429,34.5874986 7.62092296,34.668535" id="Fill-32" fill="#3E403F"></path>
                <path d="M2.54030765,32.0243084 C3.47831718,31.972682 4.41656864,31.9212872 5.35457816,31.8698923 C6.14137387,31.8263688 6.92816958,31.7853918 7.71472335,31.7393217 C8.80830165,31.6754254 9.901638,31.6059729 10.9954582,31.5425396 C11.9058864,31.4892927 12.8167984,31.4420651 13.7279523,31.3902072 C14.0444126,31.3721496 14.3606309,31.3471467 14.6773331,31.3251534 C14.6437032,31.3404329 14.6115249,31.3596481 14.5766852,31.3698345 C12.8780097,31.8532238 11.1793342,32.3363815 9.48065874,32.8188448 C8.18094578,33.1881005 6.88195864,33.5594397 5.58031014,33.9215187 C5.42909633,33.9638847 5.38312733,34.0365783 5.36667527,34.1750203 C5.32264181,34.5431184 5.26288211,34.9089015 5.2094129,35.2760736 C5.2461881,34.8910754 5.28586661,34.5063086 5.31586743,34.1208473 C5.32070627,34.0618127 5.3013509,33.9724505 5.25852715,33.943049 C4.38439034,33.3434425 3.50541469,32.7507813 2.62740681,32.1567311 C2.59837376,32.112513 2.56934071,32.0682949 2.54030765,32.0243084" id="Fill-33" fill="#313433"></path>
                <path d="M20.5934068,41.8334192 C20.5662633,41.6450545 20.3985118,41.3614924 20.3224612,41.1717742 C20.4696717,40.8999426 20.6168822,40.6278854 20.7633591,40.3558282 C20.8594616,40.3628214 20.9587431,40.3578585 21.0509331,40.3792892 C21.5735058,40.501557 22.0933887,40.6344274 22.616206,40.7557929 C23.0720205,40.8618185 23.5307695,40.9576927 23.9882958,41.0580787 C23.9875622,42.1352538 23.9924529,43.2293478 23.9917193,44.3067485 C23.9271619,44.0624384 23.8608927,43.8007582 23.787532,43.5589295 C23.7772615,43.5250916 23.698521,43.4777184 23.6635524,43.4849372 C22.6986145,43.6857091 21.7353885,43.8936998 20.7709397,44.0955996 C20.7403727,44.101916 20.6273972,44.1353028 20.6281308,44.1163535 C20.6489164,43.6658575 20.7093167,43.1467832 20.6953782,42.6976407 C20.6858413,42.3806918 20.6474492,42.0939714 20.5934068,41.8334192" id="Fill-34" fill="#424543"></path>
                <path d="M9.87897421,28.5140476 C9.10583404,28.7289024 8.33269388,28.9420805 7.56030677,29.158612 C5.99645506,29.597184 4.4331054,30.0374327 2.86950471,30.4764838 C2.85494558,30.4805557 2.83837829,30.4772024 2.82256406,30.4776814 C3.31807662,30.1047395 3.84120133,29.7600617 4.30257524,29.3521489 C5.18139463,28.5751267 5.45425287,27.3125854 5.00040955,26.3801109 C4.7968327,25.9623776 4.45619919,25.6658444 4.07866581,25.398773 C4.50238679,25.6196159 4.92811592,25.8361474 5.34882466,26.0615413 C6.38001291,26.6141277 7.40944403,27.1698279 8.4383731,27.7260072 C8.92007959,27.9861324 9.39902486,28.2510481 9.87897421,28.5140476" id="Fill-35" fill="#414442"></path>
                <path d="M14.9278091,31.3251534 C14.3745384,31.0785514 13.8205474,30.8333818 13.267757,30.5851087 C12.2332561,30.1200742 11.1987553,29.6540848 10.1652149,29.1864243 C10.0665195,29.1417829 9.97430774,29.0823406 9.87897421,29.0295826 C11.3879815,28.5717098 12.8969888,28.1140758 14.4057559,27.6564417 C14.4107988,27.6616936 14.4117593,27.6679005 14.4091178,27.6745847 C14.4158416,27.7058576 14.4230457,27.7373692 14.4297694,27.7688808 C14.4708325,28.0374453 14.5092541,28.3064874 14.5534389,28.5743358 C14.635565,29.074224 14.7244149,29.5733961 14.8043798,30.0737617 C14.8612917,30.4292219 14.91172,30.7858757 14.9583062,31.1430069 C14.9657504,31.201733 14.9388553,31.2642787 14.9278091,31.3251534" id="Fill-36" fill="#1A1C1C"></path>
                <path d="M5.08061531,36.1226994 C5.10407303,35.9404927 5.15779879,35.6314179 5.18100428,35.4492112 C5.23674791,35.0659488 5.29904961,34.6841364 5.34495612,34.2999074 C5.36210801,34.1553986 5.41003239,34.0795194 5.56767839,34.0352969 C6.92469517,33.6573509 8.27893737,33.2697387 9.63393627,32.8843015 C11.4048684,32.3806957 13.1758005,31.8763649 14.9467326,31.3717925 C14.9830543,31.3611597 15.0166013,31.3411025 15.0516618,31.3251534 C15.1149724,31.325395 15.1785353,31.325395 15.2418459,31.325395 C14.9429491,31.4703871 14.6438001,31.6153792 14.3449032,31.7596463 C13.5420437,32.1467751 12.7389319,32.5334206 11.9360724,32.9205495 C11.0759558,33.3212109 10.2148303,33.7201808 9.35597485,34.123742 C8.96274266,34.3083653 8.58489673,34.5273033 8.18056627,34.6853446 C7.92379246,34.7856308 7.66424408,34.8284035 7.38350809,34.8842254 C7.13581469,34.923615 6.82178386,35.0562827 6.60713306,35.1749345" id="Fill-37" fill="#2A2C2C"></path>
                <path d="M14.1322739,2.67701167 C14.4434384,3.09198177 14.7643121,3.53194466 15.1112345,3.8942273 C15.6357623,4.44226704 16.3064001,4.7682989 17.0907053,4.78586139 C18.1421289,4.80927804 18.8681796,4.43168451 19.3704475,3.36465068 C19.6830329,2.69975284 19.774914,1.99365069 19.8113823,1.27381377 C19.8177761,1.12115521 19.8049885,0.745813284 19.7985947,0.282208589 C19.81304,0.438694875 19.8783987,1.45596831 19.8843189,1.61290492 C19.9098941,2.28163049 19.927181,2.95080638 19.9539402,3.61998227 C19.9795154,4.25628478 20.013142,4.89281245 20.040138,5.52934012 C20.0417957,5.56694186 20.0121948,5.60589456 19.9975127,5.64417178 C19.2913539,5.55590901 18.5849582,5.46809656 17.8787994,5.37938347 C17.062762,5.27693562 16.2469615,5.17381228 15.4309241,5.07068894 C14.9883316,5.01439891 14.5457391,4.9574334 14.1031466,4.90091821 C14.0877541,4.85791263 14.0662047,4.81603284 14.0581532,4.7716763 C13.9459067,4.14528083 13.8343705,3.51843505 13.7254392,2.8913641 C13.6615013,2.52277698 13.6181656,2.1127604 13.5483075,1.69171096" id="Fill-38" fill="#3D403F"></path>
                <path d="M23.9917945,5.64417178 C23.6898332,5.11312121 23.391066,4.58094219 23.085665,4.05192284 C22.8072906,3.5696215 22.5176141,3.09273673 22.2404682,2.60975831 C21.9043551,2.0231878 21.5765956,1.43255485 21.2434309,0.844630185 C21.2274606,0.816193138 21.1945372,0.795880961 21.1692305,0.77173204 C21.2031366,0.766992533 21.2380255,0.765187006 21.2711946,0.757513517 C21.9397354,0.599304232 22.6087676,0.440643565 23.2773084,0.282208589 C23.2773084,0.487812952 23.2714117,0.693643007 23.2805025,0.899021679 C23.2841879,0.977787786 23.3237451,1.05519975 23.3468406,1.13328878 C23.4085105,1.43029794 23.4679691,1.72775848 23.5320959,2.02409056 C23.6841822,2.72734325 23.8384798,3.43014455 23.9917945,4.13317155 C23.9917945,4.63691352 23.9917945,5.1404298 23.9917945,5.64417178" id="Fill-39" fill="#484A49"></path>
                <path d="M10.079063,5.1645966 C9.78099927,5.14259578 9.48267589,5.12401256 9.18513143,5.09966214 C9.13294431,5.09539014 9.08283429,5.07125331 9.03220499,5.0560877 C10.1964191,4.44262791 11.3598543,3.82895453 12.5245877,3.21677635 C12.9581822,2.98886493 13.395152,2.76543912 13.8305639,2.5398773 C13.8261501,2.55589732 13.8243326,2.57277173 13.817582,2.58836455 C13.4411078,3.47758219 13.0181585,4.47488154 12.6331162,5.36196319" id="Fill-40" fill="#585C59"></path>
                <path d="M4.95212007,9.97435364 C4.95019504,9.97352871 4.94875128,9.97270378 4.94682625,9.97167262 L4.94562311,9.97126015 L4.94345746,9.97043522 C4.73050186,9.86752519 4.54569972,9.72130633 4.34790367,9.59509202 C4.12893237,10.4851916 3.9102017,11.3754974 3.69098978,12.265597 C3.68617722,12.2841579 3.67655211,12.3018939 3.66933328,12.3202486 C4.48602402,12.3526271 5.30247414,12.3847994 6.11916488,12.4171779 C6.1340838,12.3928425 6.16055286,12.3689195 6.16247788,12.3435529 C6.1807656,12.1220592 6.19472201,11.900153 6.20964093,11.6782468 C6.03999834,11.655355 5.99957287,11.7128938 6.04240461,11.8516883 C6.07416748,11.9543921 6.07416748,12.0645203 6.08499573,12.1717612 C6.08619887,12.1841352 6.06718928,12.1979527 6.05756417,12.2111516 C6.02532004,12.1727924 5.98874462,12.1364954 5.96155367,12.0956614 C5.86746821,11.9545984 5.77386399,11.8131228 5.68675673,11.6687601 C5.66437834,11.631432 5.68050041,11.5738931 5.65306884,11.5417208 C5.51182032,11.3757037 5.44877584,11.1952502 5.48174185,10.9898426 C5.48607315,10.9638573 5.46225099,10.9343661 5.45118212,10.9065247 C5.43939135,10.9335411 5.4302475,10.961795 5.41484732,10.9871616 C5.3999284,11.0112908 5.37851252,11.0321203 5.35974355,11.0548058 C5.34049333,11.0296455 5.31594929,11.006135 5.30343665,10.978706 C5.26541746,10.8951819 5.22258571,10.8120702 5.20189172,10.72504 C5.19202598,10.684206 5.22499199,10.6340915 5.24376096,10.5899577 C5.25892051,10.5536608 5.29236777,10.5208698 5.29669907,10.4847791 C5.29838347,10.4701366 5.24592661,10.445595 5.21392311,10.4352833 C5.16266939,10.4183723 5.06112446,10.4035235 5.06208697,10.3981615 C5.07700589,10.3113376 5.10491872,10.2263698 5.12946275,10.1409895 C5.18143836,10.1599629 5.2329327,10.1793488 5.28466768,10.1977035 C5.57943673,10.3018509 5.87444641,10.4057921 6.16945609,10.5099395 L5.9937978,10.4406454 C5.79961117,10.3624833 5.62539664,10.2834962 5.45455091,10.2102837 L5.16507567,10.0811821" id="Fill-41" fill="#4A4C4A"></path>
                <path d="M0.452969881,24.9526567 C0.418599315,23.7504366 0.364669808,22.5491386 0.32004504,21.3476101 C0.303904166,20.9109841 0.294599427,20.4736664 0.282256406,20.0368098 C0.741796572,20.7947963 1.20133674,21.5523218 1.65973755,22.3107694 C1.67625821,22.3379721 1.68252466,22.3739349 1.69353844,22.4059788 C1.39483733,23.0669117 1.0967059,23.7283056 0.796675542,24.3883164 C0.699450515,24.6024799 0.595579246,24.8124938 0.496645186,25.0259657 C0.484871843,25.0515546 0.486011199,25.0861343 0.48107399,25.1165644" id="Fill-42" fill="#4D514F"></path>
                <path d="M12.056299,40.6791946 C12.6104863,40.7665062 13.2763766,40.7780083 13.8305639,40.8650585 C13.8273183,40.9359011 13.8240727,40.9680547 13.821368,41.0396816 C13.7537512,41.6388375 13.6861344,42.2382548 13.6185176,42.8379335 C13.6177062,42.8570166 13.6168948,42.876361 13.6160834,42.8957055 C12.0222201,42.1689806 10.4502646,41.3774256 9.03220499,40.3558282" id="Fill-43" fill="#515554"></path>
                <path d="M3.69631782,12.6993865 C4.62826919,12.7342554 5.55994597,12.7689022 6.49189734,12.8037711 C6.48311053,12.8177631 6.4745983,12.8317551 6.46581149,12.845747 C6.13273635,13.011874 5.79938663,13.1775568 5.46686067,13.3445722 C5.16344103,13.4964851 4.86221809,13.6515073 4.55797469,13.8023098 C4.21666191,13.9715461 3.87232867,14.1372289 3.52991755,14.3051326 C3.39591865,14.3708727 3.25862469,14.4337256 3.13396178,14.5099041 C3.10924887,14.5250066 3.11254393,14.6160655 3.14082648,14.6349436 C3.40360711,14.8117311 3.67627291,14.9794128 3.94289777,15.1526468 C3.97227867,15.171747 3.98353678,15.2099473 4.00330711,15.2392638 C3.37834502,14.7371072 2.64437154,14.380867 1.8049563,14.1663233 C1.77914503,14.1201276 1.5981916,14.1252358 1.76019847,14.0177418 C2.41261934,13.585101 3.05213458,13.1400228 3.69631782,12.6993865" id="Fill-44" fill="#464948"></path>
                <path d="M12.7533114,5.05570105 C13.0294965,4.23372275 13.2986048,3.40897285 13.5686443,2.58481687 C13.5734863,2.57036493 13.57479,2.55472517 13.577956,2.5398773 C13.6004903,2.54185702 13.6369922,2.53552192 13.6431379,2.54720225 C13.8018094,2.84891105 13.9571286,3.15240159 14.1128203,3.45569416 C13.975752,3.2096154 13.8578658,2.95264819 13.7207975,2.70637146 C13.7019879,2.67271628 13.6841094,2.62104568 13.6431379,2.54720225 C13.6978907,2.91740924 13.7239635,3.27078864 13.7742467,3.59486823 C13.8599144,4.14621928 13.9476307,4.69737236 14.0359056,5.24812949 C14.0422376,5.28712991 14.0591849,5.32395263 14.0712901,5.36176522 C14.0655168,5.36196319 14.0595573,5.36196319 14.0535979,5.36196319 C13.998845,5.35582607 13.9437197,5.35147069 13.8891531,5.34295791 C13.4932194,5.28119076 13.0972857,5.21882969 12.7015383,5.15646862" id="Fill-45" fill="#444645"></path>
                <path d="M5.17066247,35.5582822 C4.39177212,34.34335 3.59871183,33.1065333 2.82256406,31.8895706 C3.65196343,32.4684965 4.48227699,33.0460687 5.3080196,33.6304093 C5.34847253,33.6590623 5.36675634,33.7461494 5.36218538,33.803681 C5.33384548,34.1793285 5.29636367,34.5542993 5.26162443,34.9294956 C5.24059804,35.0996086 5.21934311,35.2699473 5.19808818,35.4400604" id="Fill-46" fill="#414442"></path>
                <path d="M18.6289228,13.8282209 C18.7223779,13.7742669 18.8190398,13.7261664 18.9083719,13.6645774 C20.2607222,12.7331077 21.7795966,12.2365784 23.2480786,11.6077091 C23.2773979,11.5952386 23.3071752,11.5830226 23.3369526,11.5705521 C23.3655847,11.6031281 23.3999432,11.6316321 23.4233069,11.6687891 C23.6102171,11.9703715 23.7955239,12.2737354 23.9812889,12.5768448 C24.0158764,12.7542312 23.9680036,12.7896067 23.7936915,12.7934242 C22.9855797,12.8122572 22.1724287,12.8097122 21.3711887,12.9132937 C20.4160226,13.0367261 19.5087293,13.395571 18.6289228,13.8282209" id="Fill-47" fill="#4E514F"></path>
                <path d="M3.54398336,12.5115702 C2.97007628,12.9918331 2.40032795,13.4769374 1.8190819,13.9484859 C1.67474892,14.0656469 1.83596152,14.0600793 1.85895694,14.1104294 C1.66765458,14.012876 1.65933709,14.0208643 1.74764931,13.859647 C2.55982812,12.3769804 3.36344482,10.8894724 4.17024173,9.40365894 C4.18761061,9.3714639 4.21231846,9.34289987 4.23384609,9.31288344 C4.01123081,10.357649 3.78886017,11.4026566 3.56600026,12.4474222 C3.56110761,12.4692083 3.55132232,12.4900261 3.54398336,12.5115702" id="Fill-48" fill="#5C605E"></path>
                <path d="M23.9917945,12.6993865 C23.9104188,12.4274036 23.8292437,12.1551923 23.7473663,11.8845796 C23.7371316,11.8512383 23.7220806,11.8256614 23.7095381,11.7964307 C23.7195721,11.5801689 23.7255925,11.3625369 23.7403425,11.1476452 C23.8171026,10.0334516 23.8959698,8.91994312 23.974536,7.80597787 C23.978951,7.74340582 23.9857741,7.68174723 23.9915938,7.6196319 C23.9916942,9.31295956 23.9917945,11.0060588 23.9917945,12.6993865" id="Fill-49" fill="#2C302F"></path>
                <path d="M20.3627425,43.9223048 C20.3616755,43.9480962 20.4449057,44.0087818 20.4782512,44.0002858 C21.5303668,43.7287175 22.5811486,43.4489566 23.6337978,43.1789053 C23.671945,43.1691956 23.7578428,43.2329156 23.7690469,43.2784298 C23.849076,43.603705 23.9213689,43.978439 23.9917945,44.3067485 C23.8346708,44.2918805 23.6847496,44.3006799 23.5350952,44.2943079 C22.4936502,44.2503108 21.4527386,44.2002451 20.4115603,44.1453246 C20.3787484,44.1438074 20.3224612,44.0685572 20.3224612,44.0282013" id="Fill-50" fill="#505352"></path>
                <path d="M23.9917945,41.4846626 C23.5914748,41.3480853 23.1900853,41.2176463 22.7912634,41.0733961 C22.3338163,40.9082757 21.8789367,40.7275026 21.4217036,40.5611545 C21.3410406,40.5319976 21.2541727,40.5387497 21.1700863,40.5292353 C21.1696584,40.5114343 21.1694444,40.4936332 21.1692305,40.4755252 C22.1100138,40.4356262 23.0505832,40.3957272 23.9913666,40.3558282 C23.9915806,40.7317994 23.9915806,41.1083845 23.9917945,41.4846626" id="Fill-51" fill="#3E403F"></path>
                <g id="Group-55" transform="translate(5.080615, 0.132948)">
                    <mask id="mask-4" fill="white">
                        <use xlink:href="#path-3"></use>
                    </mask>
                    <g id="Clip-53"></g>
                    <path d="M1.18541974,11.9324276 C1.01665542,11.9058308 0.97643924,11.9726823 1.01904924,12.1339406 C1.05064766,12.2532669 1.05064766,12.3812192 1.06141986,12.5058169 C1.06261677,12.5201936 1.04370559,12.5362475 1.03413031,12.5515826 C1.00205312,12.507015 0.96566705,12.4648434 0.938616882,12.4174004 C0.845018514,12.2535065 0.75189891,12.0891333 0.66524262,11.9214055 C0.642980093,11.8780359 0.659018688,11.8111844 0.631729138,11.7738051 C0.491211895,11.5809182 0.428493807,11.3712585 0.461289143,11.1326059 C0.46559802,11.1024149 0.4418992,11.0681505 0.430887627,11.035803 C0.419157909,11.0671921 0.410061392,11.1000188 0.394740943,11.129491 C0.379899258,11.1575255 0.358594259,11.1817262 0.339922462,11.2080834 C0.3207719,11.1788508 0.296354935,11.1515352 0.28390707,11.1196669 C0.246084712,11.0226244 0.203474713,10.9260612 0.18288786,10.8249453 C0.173073197,10.7775023 0.205868533,10.7192768 0.22454033,10.668 C0.239621397,10.6258285 0.272895497,10.5877303 0.277204374,10.5457984 C0.278880048,10.528786 0.226694768,10.5002723 0.19485696,10.4882917 C0.143868591,10.4686436 0.0428493807,10.4513916 0.0438001498,10.4451618 C0.0586485937,10.3442855 0.0864169075,10.2455657 0.110833873,10.1463668 C0.162540388,10.168411 0.21376814,10.1909344 0.265235273,10.2122598 C0.558478242,10.3332634 0.851960592,10.4540274 1.14544294,10.575031 C1.18924985,10.5894076 1.23329614,10.6037843 1.27710305,10.6184006 C1.25412238,10.8388427 1.22563592,11.0595245 1.20983671,11.2806855 C1.19475564,11.4972939 1.19307996,11.7151004 1.18541974,11.9324276" id="Fill-52" fill="#484B49" mask="url(#mask-4)"></path>
                    <path d="M18.1588015,0.184536686 C17.5074431,0.352743654 16.8556058,0.521190234 16.2042474,0.689157591 C16.1719308,0.697304367 16.1379386,0.699221256 16.1049038,0.704253088 C15.6835915,0.508011625 15.2622791,0.311530551 14.8409668,0.115289088 C15.1176924,0.102829312 15.3946574,0.0855773154 15.6718618,0.0786285945 C16.6997681,0.0517921551 17.7279139,0.0285498817 18.7558203,0.00530760826 C18.788855,0.00458877506 18.8218897,0.0192050501 18.8549244,0.0266329931 C18.7584535,0.0417284903 18.6619825,0.0568239875 18.5655116,0.0719194846 C18.429782,0.109538422 18.2945311,0.146917748 18.1588015,0.184536686" id="Fill-54" fill="#545755" mask="url(#mask-4)"></path>
                </g>
                <path d="M23.9917945,3.95092025 C23.9254563,3.3143672 23.8586928,2.67801851 23.7928861,2.04126111 C23.7651389,1.77294838 23.7394116,1.5036139 23.7127274,1.23468812 C23.7129401,1.21547914 23.7135779,1.1964745 23.7131527,1.17726552 C23.7127274,1.1611218 23.7108138,1.14497808 23.7095381,1.12883436 C23.7167673,1.13435183 23.7254848,1.13659969 23.731013,1.14579548 C23.8181882,1.29047592 23.9049382,1.43597375 23.9917945,1.58126724 C23.9917945,2.37108346 23.9917945,3.16089968 23.9917945,3.95092025" id="Fill-56" fill="#434645"></path>
                <path d="M23.9917945,1.41104294 C23.912703,1.24206004 23.8337083,1.07283946 23.7543263,0.904569555 C23.7492923,0.893874434 23.7413541,0.891260071 23.7347712,0.884842999 C23.7359329,0.903618878 23.7376755,0.922394756 23.7380627,0.941170635 C23.7384499,0.963511554 23.7378691,0.985614804 23.7376755,1.00795572 C23.7285756,0.925722127 23.7129896,0.844201539 23.7115375,0.761254936 C23.7079556,0.544975825 23.710279,0.328221376 23.710279,0.111704596 C23.7651687,0.0743905073 23.8198648,0.0373140883 23.8747545,0 C23.9137679,0.104336846 23.9527812,0.208673691 23.9917945,0.313248206 C23.9917945,0.67902134 23.9917945,1.04503214 23.9917945,1.41104294" id="Fill-57" fill="#464847"></path>
                <path d="M20.3224612,6.20858896 C20.8301725,6.29470021 21.3378838,6.38210637 21.846101,6.46627526 C22.5612478,6.58508289 23.2766477,6.70130071 23.9917945,6.81848971 C23.9917945,6.9819716 23.9915415,7.14512976 23.9915415,7.30828793 C23.9847113,7.31799972 23.9783871,7.32803524 23.9718099,7.33742331 C23.9634618,7.33742331 23.9558727,7.33742331 23.9477777,7.33742331 C23.7213693,7.25616796 23.4969847,7.16520081 23.2680467,7.09527588 C22.2865221,6.79615258 21.3044917,6.50350381 20.3224612,6.20858896" id="Fill-58" fill="#4A4D4B"></path>
                <path d="M21.1692,40.3558282 C21.1695502,40.3730081 21.1667487,40.3940386 21.1674491,40.4112184 C20.9569881,40.7684407 20.7444261,41.1274403 20.5343153,41.4846626 C20.3683278,41.2497726 20.2065425,41.0098472 20.0402048,40.7749572" id="Fill-59" fill="#515554"></path>
                <path d="M23.9917945,0.282208589 C23.897709,0.199811921 23.8036236,0.117602517 23.7095381,0.0353931143 C23.8036236,0.0235954096 23.897709,0.0117977048 23.9917945,0 C23.9917945,0.0940071079 23.9917945,0.188014216 23.9917945,0.282208589" id="Fill-60" fill="#434644"></path>
                <path d="M4.7983589,16.6503067 C4.84916506,16.7442902 4.90025347,16.8384028 4.95105962,16.9325153 C4.90025347,16.8384028 4.84916506,16.7442902 4.7983589,16.6503067" id="Fill-61" fill="#666966"></path>
                <path d="M20.2807312,8.68096495 C18.4127115,9.51753189 16.5664532,10.3473297 14.6984335,11.1836633 C14.2186932,11.398407 13.766402,11.5979787 13.2856725,11.8103882 C13.2428915,11.8337299 13.1504055,11.899787 13.1194944,11.9329322 C12.7844181,12.295429 12.4528038,12.6607268 12.1204476,13.0248575 C11.4473274,13.7619888 10.7732181,14.4981863 10.1025709,15.2367181 C9.89484825,15.4652335 9.5179801,15.853873 9.3144614,16.0858896 C9.6062622,15.9164287 10.0785838,15.5980478 10.3666753,15.4234518 C10.831331,15.1417173 11.2917828,14.8534472 11.7537183,14.5682115 C12.0104041,14.4141562 12.2668426,14.2598675 12.5232811,14.1058122 C13.1934338,13.6868284 13.860619,13.2636432 14.534481,12.8502615 C15.4858011,12.2669521 16.4425615,11.6922792 17.3961072,11.1122376 C18.0810972,10.6955881 18.7643562,10.2763709 19.4483571,9.85832088 C19.6115677,9.76285328 19.7747783,9.66738568 19.9377417,9.57191808 C20.6917253,9.10975219 21.4513965,8.66742675 22.2053801,8.20549428 L23.0389907,7.6793721 C23.0624831,7.66466682 23.085481,7.64996154 23.1089734,7.63548968 C23.2177805,7.56919922 23.3268349,7.50337559 23.435642,7.43708513 C23.5988526,7.32714567 23.8283366,7.1653876 23.9917945,7.05521472 C23.983634,7.05521472 23.9111784,7.06875292 23.9035124,7.06875292" id="Fill-62" fill="#424543"></path>
                <path d="M12.7015383,5.0797546 C13.1146201,5.15154537 13.5278964,5.22333615 13.9411726,5.2944432 C13.9981293,5.30424321 14.0556692,5.30925717 14.1128203,5.31632229 C14.0700542,5.8977136 14.0284544,6.47887701 13.9841332,7.0598125 C13.9310643,7.7576644 13.8737188,8.45483258 13.8222051,9.15268448 C13.7755511,9.78375956 13.7349233,10.4152905 13.6909908,11.0465935 C13.6814656,11.1840215 13.669219,11.3592822 13.6515294,11.5705521 C13.5296459,10.7245606 13.417482,9.9143504 13.3064845,9.14197284 C13.1869338,8.31079522 13.0681606,7.4796176 12.9489986,6.64843998 C12.8790177,6.16117435 12.8094255,5.67368081 12.7378895,5.18641518 C12.7326409,5.14972212 12.7139793,5.11530813 12.7015383,5.0797546" id="Fill-63" fill="#4B4D4C"></path>
                <path d="M10.3484051,16.8251341 C10.703725,17.68774 11.066673,18.5475737 11.4254378,19.4085625 C11.8474417,20.4210964 12.2687074,21.4338614 12.6880046,22.4473193 C12.7039989,22.4861297 12.6976012,22.5332565 12.7015383,22.5766871 C12.4133945,22.3623062 12.1296799,22.143305 11.837353,21.9340064 C9.99825263,20.6179203 8.1579219,19.3029891 6.31734511,17.9887511 C5.92511525,17.7085312 5.53091685,17.4315455 5.13770272,17.1531738 C5.11850954,17.1291483 5.09956242,17.1048919 5.08061531,17.0808664 C5.10743655,17.0688537 5.13278139,17.0510656 5.16107903,17.0452903 C6.72999849,16.7315734 8.29941009,16.4187806 9.86882169,16.1059878 C9.88186321,16.1032156 9.91508218,16.0979023 9.98693357,16.0858896" id="Fill-64" fill="#333635"></path>
                <path d="M6.62098516,12.8445476 C7.49534964,13.648898 8.36584632,14.4566045 9.2382769,15.2625211 C9.50636377,15.5102029 9.77759323,15.7551997 10.0473723,16.0015391 C10.0778312,16.0295067 10.1082901,16.0576982 10.138749,16.0858896 C10.1462429,16.0787298 10.1537368,16.0715701 10.1612306,16.0646341 C10.0396367,15.6648082 9.91876792,15.2647585 9.79717397,14.8649326 C9.69830333,14.5405076 9.59919097,14.2163062 9.50056207,13.8918812 C9.42175565,13.5998986 9.34778398,13.3072448 9.26365934,13.0166047 C9.06374244,12.3239013 8.85995774,11.6323166 8.65375566,10.941403 C8.64650354,10.9170152 8.60033168,10.8861389 8.57253187,10.8861389 C8.19517966,10.8863627 7.81686049,10.9085131 7.4409587,10.8890476 C7.23644879,10.8785317 7.03604842,10.7993272 6.83371414,10.7512228 C6.78077363,10.7420494 6.72807486,10.732876 6.67537609,10.7239264 C6.65216929,10.9297685 6.62340253,11.1358343 6.60744786,11.3423477 C6.59221839,11.5446099 6.59052623,11.7479909 6.58279063,11.9509243 C6.56780291,12.1916701 6.55378213,12.4324159 6.53541009,12.6727142 C6.53347619,12.7002344 6.50688506,12.7261884 6.49189734,12.7525899" id="Fill-65" fill="#464948"></path>
                <path d="M22.8627689,7.5770184 C22.9566405,7.49743558 23.0511537,7.41728834 23.1450253,7.33742331 C23.0511537,7.41728834 22.9566405,7.49743558 22.8627689,7.5770184" id="Fill-66" fill="#3B3E3D"></path>
                <path d="M17.4353607,35.3916255 C17.4513135,35.431505 17.4661787,35.4713844 17.4998972,35.5582822 C17.2703939,35.3059586 17.065545,35.1021303 16.894052,34.8859936 C16.7037057,34.6454861 16.5441773,34.393901 16.3708716,34.1472393" id="Fill-67" fill="#1F2121"></path>
                <path d="M17.7821536,36.404908 C17.7765444,36.3981209 17.7683549,36.3951345 17.7656624,36.3842751 C17.6762513,36.0158701 17.5852696,35.6496369 17.4998972,35.2760736" id="Fill-68" fill="#1F2121"></path>
                <path d="M20.3224612,39.2269939 C20.2433014,39.0687856 20.1709392,38.9061827 20.0856395,38.7523691 C19.9203029,38.453043 19.7310648,38.1788642 19.5652896,37.8797822 C19.346668,37.484994 19.1201524,37.0884968 18.9111792,36.6871166" id="Fill-69" fill="#1F2121"></path>
                <path d="M16.3330221,29.7599618 C16.4048429,29.8214238 16.4778811,29.8821952 16.5504323,29.9431968 C16.4773941,29.8826556 16.4048429,29.8214238 16.3330221,29.7599618 Z M23.9869325,32.0227766 C23.9869325,31.9861756 23.9104859,31.916887 23.8715322,31.918038 C23.6438967,31.9254042 23.4169915,31.9580919 23.1891125,31.9668393 C21.9024239,32.0151802 20.6471417,31.8646328 19.4261874,31.4597201 C18.2687763,31.075525 17.236017,30.508325 16.3330221,29.7599618 C16.1718512,29.6220751 16.0136019,29.4816563 15.8575438,29.3387053 C15.8716645,29.3520566 15.8865156,29.3649475 15.9006363,29.3782988 C15.7859664,29.2740205 15.6722704,29.1690517 15.5597916,29.0627017 C15.6581496,29.15524 15.7574815,29.247318 15.8575438,29.3387053 C15.7918094,29.2760923 15.727049,29.2130189 15.6627754,29.1483342 C15.2055566,28.688405 14.8140722,28.1497492 14.3950767,27.6564417 C14.4021371,27.6865972 14.4126059,27.7344778 14.4194228,27.7648635 C14.4610545,28.0238326 14.5000082,28.2832621 14.5448049,28.5415407 C14.6280684,29.0235686 14.7181488,29.5049059 14.7992211,29.9873942 C14.8569212,30.3301543 14.9080479,30.6740653 14.9552793,31.0184367 C14.9628265,31.0750646 14.935559,31.1353757 14.9243598,31.1940753 C14.9399412,31.2085776 14.9550358,31.2228497 14.9706173,31.237352 C14.9857118,31.2447182 15.0008064,31.2518542 15.0163878,31.2592205 C15.04609,31.2649753 15.0760357,31.2771757 15.0903998,31.2946705 C15.1853494,31.4074659 15.268126,31.5156575 15.3445726,31.6395023 C15.4127415,31.7499958 15.4779889,31.8653234 15.538854,31.9811113 C15.5826769,32.0639815 15.6452462,32.1383344 15.7039202,32.2235065 C15.7163367,32.198185 15.7151194,32.3491928 15.7299705,32.3176561 L20.7693588,40.3466204 C20.7708196,40.340175 20.7720369,40.3316578 20.7732542,40.3242915 C20.7749584,40.3339597 20.7766627,40.3433977 20.7786103,40.3530659 L20.7764192,40.3558282 C21.8469149,40.3259029 22.9171672,40.2959776 23.9876629,40.2660523 C23.9891236,39.8537734 23.9915582,39.4417247 23.9915582,39.0299062 C23.9920451,36.6941196 23.9922886,34.358333 23.9869325,32.0227766 L23.9869325,32.0227766 Z" id="Fill-70" fill="#1F2121"></path>
                <path d="M18.3904361,37.156298 C18.6056828,37.5414973 18.8306415,37.9208425 19.056052,38.2994852 C19.2268038,38.5863357 19.4068159,38.8666297 19.577116,39.1534802 C19.6649764,39.3014717 19.7397368,39.4574247 19.821273,39.6089286 C19.8255644,39.616656 19.8373093,39.6197002 19.8479248,39.6264909 C19.9945093,39.895545 20.147418,40.1774781 20.3005526,40.4596454 C20.3080061,40.503434 20.3152336,40.5476909 20.3224612,40.5917137 C20.095018,40.702239 19.8219506,40.8097201 19.5945074,40.9202454 C19.3600625,40.436229 18.6056828,38.7785841 17.125382,35.7311777 C16.4448592,34.3306445 15.7604968,32.9319847 15.0772637,31.5328566 C15.0454172,31.4679932 14.993243,31.3893142 14.9595895,31.3251534 C14.9873706,31.3310075 15.0445137,31.3422473 15.0580654,31.3598096 C15.1459258,31.474784 15.2385293,31.5881192 15.3096759,31.7138651" id="Fill-71" fill="#1A1C1C"></path>
                <path d="M17.4998972,35.2760736 C17.5905671,35.656592 17.6871944,36.0296438 17.7821536,36.404908" id="Fill-72" fill="#1A1C1C"></path>
                <path d="M14.3224885,42.6779475 C14.2141646,42.4001896 14.1110521,42.1219284 13.9960278,41.8451769 C13.8515959,41.4979794 13.7108864,40.9844795 13.5612431,40.6380368 C13.4681813,41.2151896 13.3624631,41.9596514 13.2694013,42.5368042 C13.2682846,42.5551705 13.2671678,42.5737883 13.2660511,42.5924061 C13.5590096,42.6847405 13.8519681,42.7770749 14.1449266,42.8689061 C14.3336559,42.9192246 14.3314224,42.9084061 14.3950767,42.7516641 C14.3708806,42.7272596 14.3463123,42.702352 14.3224885,42.6779475" id="Fill-73" fill="#626563"></path>
                <path d="M11.5725126,32.7361963 C12.3928166,32.3985072 13.2133783,32.0612397 14.0336823,31.7235506 C14.3390735,31.5977077 14.6447224,31.4712324 14.9501136,31.344757 C15.0472718,31.3382225 15.14443,31.3314771 15.2418459,31.3251534 C15.2418459,31.3314771 15.2418459,31.3380117 15.2415882,31.3445463 C14.6516806,31.5717802 14.0630617,31.8007006 13.4713501,32.0251942 C12.8399506,32.2646542 12.2054585,32.4992659 11.5725126,32.7361963" id="Fill-74" fill="#303332"></path>
                <path d="M27.8942716,42.8957055 C27.8166511,42.9213865 27.7421354,42.9498896 27.6611278,42.991092 C27.7359257,42.9529939 27.815522,42.9250552 27.8942716,42.8957055" id="Fill-76" fill="#4C84B8"></path>
                <path d="M38.2657733,20.2540046 C37.6986573,19.8064632 36.8135629,19.6110293 36.0743452,19.8714579 C35.4640672,20.0585707 34.9860069,20.4330212 34.4352815,20.7044697 C34.4426573,20.8121945 34.5595772,20.8684183 34.6461744,20.9345375 C34.9748067,21.1697778 35.2662868,21.4362786 35.5604987,21.7000807 C35.8487008,21.9735532 36.2595594,22.1422246 36.6745157,22.2470258 C37.2678567,22.3372088 37.8811397,22.2879567 38.4690172,22.1903522 C38.7288088,22.1552686 38.9615559,22.0194319 39.2336404,22.0475438 C39.2153376,21.8134279 39.145131,21.5849344 39.0503385,21.364762 C38.8782368,20.9595008 38.6430312,20.5576131 38.2657733,20.2540046" id="Fill-77" fill="#FFFFFE"></path>
                <path d="M30.161092,21.9437517 C30.2424433,21.8267501 30.365639,21.7519729 30.4836919,21.6774316 L30.4518994,21.6179873 L30.4451201,21.6052492 C30.4275875,21.6125618 30.3920548,21.627187 30.3742884,21.6347355 C30.3179503,21.650776 30.2632486,21.6708267 30.2092482,21.6920568 C29.4929831,20.5052931 28.7872375,19.3123962 28.0775178,18.1213864 C27.6791771,17.4394277 27.2553558,16.7730378 26.8663658,16.0858896 C26.8212486,16.0965046 26.7768327,16.1073556 26.7326505,16.1184424 C26.1924127,16.2677609 25.6563826,16.4328841 25.1208201,16.5989508 L25.1208201,28.7852761 C26.1463604,27.380078 27.1896669,25.9876179 28.2215189,24.5876094 C28.8578354,23.6992468 29.5320223,22.8382474 30.161092,21.9437517" id="Fill-78" fill="#5A93C1"></path>
                <path d="M27.6247586,1.58462191 C28.4513808,1.88671746 29.234674,2.28839176 30.0184486,2.68430729 C31.2952117,3.3947957 32.5129991,4.22189923 33.5897264,5.21168805 C33.7452296,5.36717488 33.8995292,5.52482124 34.0718826,5.66279181 C34.2755292,5.82427735 34.4199594,6.04551015 34.6074779,6.22403206 C34.7182078,6.33008943 34.8152167,6.44982389 34.9107814,6.56979829 C34.979145,6.60579061 35.0470272,6.64106309 35.1175573,6.67489587 C35.3009837,6.75239933 35.4993345,6.6676974 35.6897417,6.70560931 C36.4946994,6.82534377 37.2998978,6.9395594 38.1046148,7.05521472 C36.5315291,5.06963836 34.5148019,3.44782438 32.2778186,2.259118 C31.9826995,2.12354693 31.698172,1.96638046 31.408108,1.82025164 C30.5665613,1.42961498 29.7007022,1.08888768 28.8158264,0.809107372 C28.3760364,0.648101723 27.9141004,0.565079437 27.4658854,0.434067389 C26.6931837,0.240908601 25.9096498,0.0990988566 25.1208201,0 L25.1208201,0.795910187 C25.9712734,1.00466565 26.8087279,1.26644979 27.6247586,1.58462191" id="Fill-79" fill="#6AAFD4"></path>
                <path d="M31.1110257,8.59795192 C31.4237241,8.64234089 31.7398481,8.66938245 32.0469189,8.74846626 C32.2690865,8.65229015 32.4834244,8.53672575 32.6938474,8.41580406 C33.1389166,8.15661326 33.6003792,7.93058664 34.043491,7.6673141 C34.4606669,7.44868565 34.8773534,7.22929186 35.2820508,6.98642805 C35.2103601,6.95045767 35.1413609,6.91295664 35.0718724,6.87469028 C33.4396258,6.18385498 31.8203471,5.4573044 30.19226,4.7554994 C28.5030035,4.01364228 26.8117895,3.27714246 25.1208201,2.5398773 L25.1208201,7.70838666 C25.819131,7.81272626 26.5176866,7.91681075 27.2164868,8.0196197 C28.5142586,8.21758432 29.8152113,8.38799717 31.1110257,8.59795192" id="Fill-80" fill="#5791C1"></path>
                <path d="M41.0066084,26.5276074 C41.1135454,26.3373251 41.1579552,26.1214192 41.2313088,25.9173225 C41.4347985,25.3914838 41.5828312,24.8464832 41.7739481,24.3159655 C41.615531,23.7431132 41.520083,23.1548869 41.3819928,22.5766871 C41.1641417,22.9501217 40.9869443,23.3451692 40.7933971,23.7310813 C40.7584879,23.8012674 40.6994957,23.8540741 40.6449225,23.9079948 C40.7467778,24.153312 40.7372772,24.4251438 40.7814661,24.6840525 C40.8486332,25.2999077 40.9398832,25.9124206 41.0066084,26.5276074" id="Fill-81" fill="#5791C1"></path>
                <path d="M36.2401174,44.6952683 C36.1813167,44.672521 36.1242453,44.6479719 36.067174,44.6236481 C36.6094752,44.2824387 37.2061299,44.007219 37.6891362,43.591912 C38.3386622,43.0358421 38.8999872,42.3966657 39.3780522,41.7119947 C39.5561839,41.4390272 39.8575996,41.271463 40.1056498,41.058179 C40.1950863,40.975523 40.3119466,40.9248483 40.4362188,40.9043533 C40.397183,40.5548107 40.3218291,40.2104483 40.2432634,39.8676623 C40.2311573,39.7854568 40.1721095,39.7228454 40.114297,39.6645132 C40.1390032,39.301007 40.014731,38.9519149 39.935177,38.6005706 C40.1730978,38.489762 40.4297952,38.4158896 40.6645041,38.2983244 C40.8779657,38.191795 41.0995803,38.0990041 41.3288539,38.024456 C41.5707276,37.9476558 41.7960482,37.8208565 42.0562045,37.8053163 C41.452632,37.5249165 40.9414607,37.1159157 40.3843358,36.7697515 C40.0001543,36.4699827 39.57669,36.2082762 39.2359915,35.8654903 L39.2073323,35.8404908 C39.106284,36.0844048 39.0175887,36.3334989 38.8577396,36.5528639 C38.3982042,37.4206393 37.7929022,38.2138666 37.2533188,39.0399762 C36.7843951,39.8645092 36.218376,40.6374667 35.696581,41.4336219 C35.1315501,42.1664901 34.5099421,42.8617465 33.9454054,43.593939 C33.7331791,43.8709605 33.4720345,44.1180276 33.3062559,44.4223008 C33.6462133,44.6153149 34.0481832,44.6808541 34.3888817,44.8711656 L34.4111173,44.8646342 C34.788628,44.7364837 35.1999863,44.8382834 35.5863913,44.7508978 C35.7993588,44.7017997 36.0202322,44.6738723 36.2401174,44.6952683" id="Fill-82" fill="#5791C1"></path>
                <path d="M35.2820508,6.49079755 C35.182862,6.37938244 35.0821741,6.26819017 34.967245,6.16969922 C34.7726151,6.00391355 34.6227076,5.7984641 34.411338,5.64849938 C34.2324483,5.52037201 34.0722972,5.37397257 33.9108967,5.22957859 C32.7933363,4.310404 31.5293661,3.54230829 30.2041838,2.88250806 C29.3906857,2.51483822 28.5776873,2.14182046 27.7197166,1.86127724 C26.8727392,1.56580439 26.0035255,1.32269663 25.1208201,1.12883436 L25.1208201,2.70446673 C26.8475048,3.34844601 28.5744393,3.99175681 30.299375,4.63974704 C31.9618493,5.25275293 33.6153291,5.88737335 35.2820508,6.49079755" id="Fill-83" fill="#64A7CF"></path>
                <path d="M35.060425,6.49079755 C34.6644444,6.71152188 34.2567327,6.91091571 33.8485423,7.10961398 C33.4149746,7.34888657 32.9634513,7.55430859 32.5279683,7.78987153 C32.3220776,7.89976999 32.1123562,8.00479953 31.8949739,8.09220822 C31.9239422,8.38573448 31.9399826,8.68065187 31.9904976,8.9718596 C32.7175794,10.428362 33.3860062,11.9126867 34.1085392,13.3717395 C34.6340396,14.6082131 35.1698344,15.8407452 35.710178,17.0714224 C35.8866216,17.1391236 36.0716839,17.1838713 36.2579433,17.2207359 C38.2012171,17.6554609 40.1492791,18.0744197 42.0913559,18.5137817 C42.1061992,18.5420678 42.1368434,18.5977126 42.1519261,18.6257669 C42.2333248,18.4363427 42.3116112,18.2388037 42.297965,18.0292084 C42.2780941,17.7080916 42.3870247,17.3895251 42.3113718,17.0702632 C42.286234,16.3777174 42.1720364,15.6911998 42.0109149,15.0172023 C41.711655,13.6652657 41.2706657,12.3409197 40.6630485,11.0884483 C40.3817442,10.4230293 39.9606257,9.82670268 39.6194695,9.19049725 C39.1645945,8.36834549 38.6276026,7.59001399 38.0312375,6.85828501 C37.2308969,6.74653172 36.4300776,6.63616956 35.6294976,6.52047477 C35.4401259,6.48384195 35.2428538,6.56568616 35.060425,6.49079755" id="Fill-84" fill="#63A3CC"></path>
                <path d="M30.4836919,21.4076447 L30.5156615,21.4670256 C30.5826566,21.5886149 30.6421295,21.7137389 30.7039531,21.8383915 C31.5887593,23.404915 32.4559352,24.982749 33.3287528,26.5565773 C34.0146892,27.7656374 34.6801744,28.9864795 35.3604691,30.1988385 C35.5400631,30.4785412 35.6615947,30.7909976 35.8498863,31.0659875 C35.8609346,31.0782407 35.8837365,31.1036896 35.89549,31.1159428 L35.9046578,31.0992125 C35.9178218,31.1121726 35.9439146,31.1385641 35.9568435,31.1515242 C36.2370478,31.6032428 36.4490816,32.0945487 36.7405693,32.5408476 C36.9107605,32.8391657 37.1425402,33.0945976 37.3261305,33.3834902 C37.5661377,33.8505253 37.8367041,34.301537 38.1051548,34.7525488 C38.3096664,35.1177881 38.640881,35.4026748 38.7751064,35.8077371 C38.807076,35.8157488 38.87031,35.8324791 38.9015745,35.8404908 C38.9363649,35.8065589 38.9725658,35.7747477 39.0101771,35.7438791 C38.9887857,35.7353961 38.946708,35.7184302 38.9250815,35.7101828 C39.3312837,34.9226796 39.7280831,34.1297567 40.1488597,33.3497939 C40.3707665,32.8511833 40.6944589,32.4079476 40.9271789,31.9149923 C40.7638047,31.6303412 40.8000056,31.2947923 40.7501706,30.9823359 C40.6523812,30.1962465 40.5529463,29.4103928 40.4565673,28.6250103 C40.4227171,27.9348257 40.2755628,27.256423 40.2450036,26.5662384 C40.1740123,25.9156411 40.0769281,25.2678714 40.0054666,24.6165671 C39.9584524,24.3427554 39.9685605,24.0552767 39.8601929,23.7958389 C36.8073294,22.9110171 33.7467086,22.0518798 30.6940801,21.1656442 C30.6132158,21.2361 30.5464557,21.3209298 30.4836919,21.4076447" id="Fill-85" fill="#63A3CC"></path>
                <path d="M26.8157253,16.0858896 C26.8621846,16.0747394 26.9088898,16.0638265 26.9563324,16.0531508 C27.3791369,15.5020486 27.7589235,14.9227151 28.1566546,14.3552435 C28.4277903,13.995829 28.6750818,13.6209941 28.9366306,13.2554114 C29.9988039,11.7987744 31.0949,10.3651495 32.1772303,8.92250947 C32.125363,8.62453943 32.1088933,8.32277359 32.0791495,8.02243117 C31.7706497,7.94888761 31.4530547,7.92374046 31.1389011,7.88246117 C29.8370566,7.68721488 28.53005,7.52874036 27.226239,7.34464422 C26.5241869,7.24903759 25.8223806,7.15224478 25.1208201,7.05521472 L25.1208201,15.5091657 C25.6886564,15.6702498 26.2562468,15.8315712 26.8238373,15.9938415 C26.8216249,16.0168535 26.8179377,16.063352 26.8157253,16.0858896" id="Fill-86" fill="#4F8ABC"></path>
                <path d="M28.0136259,14.4338659 C27.6162443,14.9982516 27.2367915,15.5744347 26.8143586,16.12254 C27.2230379,16.8098542 27.6683116,17.4764051 28.0868149,18.1585285 C28.8324581,19.3498259 29.5739261,20.543011 30.3264461,21.7300613 C30.3831798,21.7088261 30.4406504,21.6887706 30.4998401,21.6727262 C30.5185057,21.6651759 30.555837,21.6505471 30.574257,21.6432328 L30.5813795,21.6559739 C30.6469548,21.5691454 30.7167054,21.4842044 30.8011919,21.4136561 C32.2814263,20.1938091 33.7572399,18.9692431 35.2303518,17.7418457 C35.4290427,17.5780984 35.6166815,17.3980706 35.8465636,17.2732546 C35.2922432,16.0208468 34.7425892,14.7665514 34.203496,13.508245 C33.4622736,12.0234292 32.776557,10.5128952 32.0306682,9.03067485 C30.9492891,10.4654698 29.8541563,11.8912988 28.7929164,13.3400146 C28.5315975,13.7036093 28.2845233,14.0764059 28.0136259,14.4338659" id="Fill-87" fill="#5997C4"></path>
                <path d="M26.5321022,16.0376337 C26.0617427,15.864822 25.5913833,15.6930209 25.1208201,15.5214724 L25.1208201,16.6503067 C25.5875129,16.4724421 26.054613,16.295588 26.5253798,16.1356614 C26.5272132,16.1116597 26.5302688,16.0621406 26.5321022,16.0376337" id="Fill-88" fill="#4C84B8"></path>
                <path d="M38.5714354,22.0282234 C38.0465872,22.1263428 37.4990573,22.1758546 36.9693314,22.0851959 C36.5988646,21.979842 36.2320562,21.8102809 35.9747538,21.5353659 C35.7120858,21.2701724 35.4518567,21.0022659 35.1584587,20.7657848 C35.0811461,20.6993168 34.9767618,20.6427965 34.9701768,20.5345035 C35.4618561,20.2616232 35.8886611,19.8851977 36.4335082,19.6970979 C37.0934706,19.4352956 37.8836696,19.6317604 38.3899823,20.0816624 C38.7267924,20.3868723 38.9367805,20.7908798 39.0904303,21.1982785 C39.1750596,21.4196122 39.237739,21.649311 39.2540795,21.8846617 C39.0111665,21.8564015 38.8033734,21.9929547 38.5714354,22.0282234 Z M36.6164246,17.3603204 C36.4266793,17.3243734 36.2381534,17.2807397 36.0584076,17.2147239 C35.8301279,17.334321 35.643797,17.5068211 35.4464911,17.6637216 C33.9836475,18.8397972 32.5181211,20.0131597 31.0482047,21.1820007 C34.2153416,22.0322929 37.3907708,22.8565857 40.5581517,23.7055215 C40.6183922,23.6508098 40.6835104,23.5972285 40.7220448,23.5260128 C40.9356912,23.1344398 41.1312898,22.7335975 41.3717639,22.354685 C41.6690641,21.821585 41.953926,21.2814765 42.2092773,20.7296118 C42.1865957,20.4338973 42.1787912,20.1352437 42.231715,19.8420161 C42.2563478,19.6704203 42.2453728,19.4906856 42.3231733,19.3288113 C42.415607,19.1264684 42.5175524,18.9279689 42.6207173,18.7303738 C42.6053523,18.7030179 42.5741346,18.6487584 42.5590135,18.6211764 C40.5805894,18.1927521 38.5960681,17.784223 36.6164246,17.3603204 L36.6164246,17.3603204 Z" id="Fill-89" fill="#4981B6"></path>
                <path d="M43.0255491,30.0190676 C42.7424453,30.1153147 42.5955947,30.3578921 42.4126622,30.5503863 C42.1091204,30.9009695 41.7689921,31.2275998 41.4916917,31.59495 C41.5704157,31.5997406 41.6504014,31.6038779 41.7306394,31.607362 C42.1131575,31.546391 42.5014791,31.5228736 42.8887913,31.4973964 C43.0828259,31.4865087 43.2814023,31.4767098 43.4643348,31.4122548 C43.6566032,31.3277664 43.8228825,31.2032114 44.0242344,31.1339658 C44.4143222,31.0039669 44.8208108,30.9162122 45.2167019,30.8031981 C45.5580918,30.7156612 45.7725644,30.4504374 45.961048,30.2074244 C46.2302741,29.8821007 46.3380151,29.4614008 46.2703931,29.0674847 C45.8316074,29.2172991 45.3950927,29.3732106 44.9388969,29.4803454 C44.2962361,29.6464913 43.6364175,29.7758369 43.0255491,30.0190676" id="Fill-90" fill="#4981B6"></path>
                <path d="M42.6119298,35.8876086 C42.2410199,36.0636102 41.8425795,36.1959932 41.4916917,36.4027461 C41.835822,36.3953309 42.1824551,36.4252097 42.5240827,36.3748301 C42.9020004,36.3200885 43.2411252,36.1586991 43.5887595,36.0267524 C43.814509,35.9403873 43.9666771,35.7519542 44.0319993,35.5493451 C43.9987126,35.4594905 43.9704313,35.3681092 43.9526617,35.2760736 L43.9163715,35.2813079 C43.4873974,35.4924226 43.0586736,35.7046279 42.6119298,35.8876086" id="Fill-91" fill="#4981B6"></path>
                <path d="M42.6185128,38.2532102 C42.3745378,38.1141568 42.1335304,37.9707965 41.9001538,37.8159509 C41.6769516,37.8301024 41.4836369,37.94557 41.2761204,38.0155068 C41.0794142,38.0833928 40.889279,38.1678913 40.7061388,38.2649005 C40.5047693,38.3719593 40.2845347,38.4392299 40.0804097,38.5401359 C40.1486633,38.8600817 40.2552831,39.1779765 40.2340864,39.5089974 C40.2836868,39.5621166 40.3343472,39.6191325 40.3447336,39.6939917 C40.4121394,40.0061439 40.4767896,40.3197318 40.5102805,40.6380368 L40.559457,40.6257312 C40.6421245,40.6070677 40.6866377,40.5305678 40.7353904,40.4704755 C40.8820721,40.2598445 41.0885288,40.0988461 41.2701853,39.9177486 C41.4751582,39.7448548 41.6644455,39.5508364 41.9016375,39.418141 C42.2859353,39.1699779 42.5689124,38.8120898 42.9029737,38.5091668 C42.8605801,38.3795477 42.7281002,38.3200706 42.6185128,38.2532102" id="Fill-92" fill="#4981B6"></path>
                <path d="M37.2338817,45.0155307 C36.9225889,44.9934651 36.6145836,44.9383012 36.3073369,44.8803083 C36.0822756,44.8534336 35.8562027,44.8885122 35.6382219,44.9501826 C35.2427208,45.0599447 34.821679,44.9320775 34.4352815,45.0930431 C34.6019281,45.2087459 34.7996786,45.2415614 34.9766932,45.33435 C35.410126,45.5586833 35.8711225,45.7060701 36.3308546,45.8441214 C36.8441968,45.9179562 37.3651253,46.0695863 37.883778,45.9635018 C38.3895339,45.9074892 38.936256,45.6851361 39.2336404,45.1985618 C39.22833,45.1623516 39.2166976,45.0899313 39.2113872,45.0537211 C38.5518815,45.1199178 37.8931345,45.0517409 37.2338817,45.0155307" id="Fill-93" fill="#5E9AC7"></path>
                <path d="M41.3639193,24.0658155 C41.5101559,24.5241294 41.5795814,25.0006755 41.7080924,25.4635474 C41.8494052,25.9590096 41.897166,26.4742993 42.0697449,26.9629243 C42.1623122,27.2585151 42.2125349,27.5629942 42.2797447,27.8640547 C42.3824058,28.415581 42.5173177,28.9607261 42.647552,29.5072386 C42.6500139,29.6036418 42.769662,29.5974884 42.8417956,29.6319018 C43.4378207,29.3773337 44.0816066,29.241959 44.7086515,29.0680687 C45.1537624,28.9559402 45.5796704,28.7927613 46.0077942,28.6359637 C45.9235973,28.2824854 45.7512646,27.9538486 45.5370796,27.653016 C45.2030003,27.207009 44.8989561,26.7411743 44.5505978,26.3038275 C44.3681713,26.0741008 44.156202,25.8621506 44.018582,25.6053034 C43.862744,25.3217915 43.6849951,25.0485352 43.5419589,24.7588699 C43.439544,24.5471476 43.2861679,24.3593552 43.1997553,24.1403399 C43.0675515,23.8153496 42.8843864,23.5106426 42.7654768,23.18155 C42.6125931,22.8235137 42.4264737,22.4784678 42.2787599,22.1183804 C42.1379395,21.8273476 42.0596512,21.5155757 41.9407416,21.2167943 C41.8678694,21.0171508 41.827002,20.8093029 41.7917968,20.601227 L41.7725941,20.6486309 C41.5148335,21.2049433 41.227284,21.7494047 40.9271789,22.286801 C41.0810474,22.8782105 41.1874013,23.4798757 41.3639193,24.0658155" id="Fill-94" fill="#68ACD2"></path>
                <path d="M41.9456958,31.5632635 C41.8483477,31.5914327 41.7531954,31.6235882 41.6577992,31.6565409 C41.6421844,31.6934799 41.610223,31.7676236 41.5938763,31.8045625 C41.3523359,32.360507 41.0163752,32.8603787 40.7860578,33.4227012 C40.3493333,34.3023266 39.9374947,35.1965681 39.5158968,36.0846974 C39.538343,36.0939986 39.5820155,36.1131325 39.6042177,36.1226994 C40.1582968,35.8803373 40.7609279,35.8694417 41.3491642,35.8537626 C42.042556,35.8683787 42.733264,35.7583591 43.4086012,35.5917352 C43.7011335,35.5356624 43.9809788,35.4126211 44.2788786,35.3884381 L44.3142557,35.3820601 C44.2381339,35.1261449 44.0917458,34.9063715 43.9951296,34.6602889 C43.6606328,33.913006 43.5823151,33.0639416 43.5818271,32.243578 C43.5315672,31.9427514 43.4786235,31.6052516 43.6220839,31.3251534 C43.4451982,31.4038147 43.2531858,31.4157734 43.065565,31.4290608 C42.6910554,31.4601533 42.3155698,31.4888541 41.9456958,31.5632635" id="Fill-95" fill="#68ACD2"></path>
                <path d="M41.5557252,36.2073293 C41.1934597,36.2482189 40.8334929,36.1591963 40.4732963,36.131625 C40.0565531,36.051715 39.6359022,35.9760107 39.2336404,35.8404908 C39.5506227,36.1961138 39.9446094,36.467621 40.3020477,36.7786159 C40.8203907,37.1377437 41.295979,37.5620613 41.8575364,37.8529619 C42.1106166,38.0293715 42.3719718,38.1926963 42.6365451,38.3511145 C42.7553847,38.427286 42.8990496,38.495046 42.9450224,38.642716 L42.9544468,38.6625767 C42.9627219,38.6343044 42.9797318,38.5777599 42.9882368,38.5497213 C43.0112232,38.5366366 43.0574258,38.5109345 43.0811018,38.4976162 C43.1194891,38.3735454 43.1822419,38.2529794 43.1852301,38.1211979 C43.1383379,37.6405694 42.8772125,37.2237288 42.7526263,36.7652975 C42.6659677,36.5706629 42.6137886,36.360607 42.5039136,36.1774214 C42.1901495,36.2313957 41.871788,36.199385 41.5557252,36.2073293" id="Fill-96" fill="#68ACD2"></path>
                <path d="M40.2244367,41.3653853 C39.95554,41.5730515 39.6287931,41.7362021 39.435691,42.0019797 C38.917449,42.6686167 38.3089498,43.2909573 37.604837,43.8323805 C37.0812384,44.2367485 36.4344402,44.504719 35.8465636,44.836941 C35.9084312,44.8606241 35.9702989,44.8845266 36.0340413,44.9066747 C36.3594491,44.9516288 36.6856604,44.9943901 37.0153534,45.0114946 C37.7135741,45.0395635 38.4112591,45.092412 39.1097476,45.0410985 C39.1153719,45.0691675 39.1276919,45.1253053 39.1333162,45.1533742 C39.2546411,44.9601811 39.2996358,44.7450591 39.3017784,44.5299371 C39.4209606,43.7420337 39.6437913,42.9631211 40.007766,42.2263118 C40.1716751,41.8658016 40.3886136,41.5243695 40.6449225,41.202454 L40.582787,41.2156113 C40.4480708,41.2355665 40.3213895,41.2849064 40.2244367,41.3653853" id="Fill-97" fill="#68ACD2"></path>
                <path d="M27.9433842,42.3312883 C27.9735856,42.3383436 27.9964484,42.3411656 28.0049161,42.3358037 C27.9845936,42.3343926 27.9637067,42.3329816 27.9433842,42.3312883" id="Fill-98" fill="#5E9AC7"></path>
                <path d="M35.7438986,41.7438152 C36.252408,40.9107192 36.8040154,40.1018973 37.2609997,39.2391068 C37.7868446,38.3746666 38.3767347,37.5446343 38.8245697,36.636595 C38.9803488,36.4070517 39.0667858,36.1463999 39.1652613,35.8911685 C39.1825969,35.8739646 39.2165457,35.840028 39.2336404,35.8232954 C39.2016178,35.8152825 39.1368503,35.7985499 39.1041054,35.7905371 C38.9666249,35.3854192 38.6273779,35.1004933 38.4179067,34.7352036 C38.1429456,34.2841299 37.8658177,33.8330561 37.61999,33.3659568 C37.4319475,33.0770245 37.1945468,32.8215574 37.0202282,32.5231983 C36.7216716,32.0768379 36.5044957,31.5854645 36.2174961,31.1336837 C36.2042537,31.1207218 36.177528,31.0943267 36.1640448,31.0813648 L36.1546548,31.0980974 C36.1426162,31.0858425 36.1192613,31.0603901 36.1079451,31.0481352 C35.9150871,30.7731075 35.7906083,30.4606081 35.6066589,30.180867 C34.9098662,28.9683411 34.2282421,27.7473311 33.525671,26.5381046 C32.6316865,24.9640599 31.7434805,23.3860088 30.8372166,21.8192698 C30.7738937,21.6946 30.7129785,21.5694589 30.6443587,21.4478528 C30.5227691,21.5223247 30.3958825,21.5970323 30.312094,21.713925 C29.664178,22.6075884 28.969793,23.4677865 28.314413,24.3553224 C27.2516477,25.7540282 26.1770846,27.1451924 25.1208201,28.5490829 L25.1208201,38.7331217 C25.6295703,39.8603348 26.1508405,40.9818917 26.6588684,42.1095761 C27.050122,42.2691252 27.6828695,42.546981 28.0835132,42.7107722 C28.0871248,42.7119505 28.0909771,42.7133645 28.0948295,42.7152499 C28.098441,42.7166639 28.1027749,42.7183136 28.1063865,42.720199 C28.230143,42.7708682 28.3495657,42.8370917 28.4733222,42.8846971 C29.1621694,43.1809352 29.8519797,43.4762307 30.5468462,43.7609209 C31.5092098,44.1137199 32.4754258,44.4596846 33.4144345,44.8711656 C33.5759922,44.5527745 33.8304877,44.2942437 34.0373104,44.0043687 C34.5874732,43.2382032 35.1932542,42.5106877 35.7438986,41.7438152" id="Fill-99" fill="#5E9AC7"></path>
                <path d="M40.6449225,27.1525923 C40.6797726,27.836666 40.8475895,28.509062 40.8861927,29.1931356 C40.9961047,29.9715642 41.1095017,30.7504599 41.2210222,31.5295892 C41.2778548,31.839279 41.2365707,32.171857 41.422885,32.4539877 C41.4408462,32.421524 41.4759644,32.356363 41.4931214,32.3238993 C41.59794,32.2949389 41.7024904,32.2666791 41.8094535,32.2419226 C41.7242047,32.2381857 41.639224,32.2337483 41.5555836,32.2286101 C41.8502014,31.834608 42.2115706,31.4842801 42.5340685,31.1082615 C42.7284251,30.9018016 42.8844465,30.6416247 43.1852301,30.5383948 C43.1066833,30.5031284 42.9763973,30.5094343 42.9737165,30.4106418 C42.8319032,29.8505843 42.6849965,29.2919281 42.5732079,28.7267324 C42.5000226,28.4182103 42.4453347,28.1061849 42.3445373,27.803268 C42.1566146,27.3025327 42.1046075,26.7744718 41.9507307,26.2667298 C41.8107939,25.7923859 41.7351959,25.3040288 41.5759576,24.8343558 C41.34407,25.390443 41.1644577,25.961711 40.9175579,26.5128936 C40.8285559,26.7268272 40.7746722,26.953139 40.6449225,27.1525923" id="Fill-100" fill="#5E9AC7"></path>
                <path d="M25.1208201,38.6625767 L25.1208201,41.5825403 C25.590732,41.8334887 26.0610857,42.0834128 26.5321022,42.3312883 C26.0659461,41.1059945 25.587639,39.8873584 25.1208201,38.6625767" id="Fill-101" fill="#4F8ABC"></path>
                <path d="M27.9433842,42.591855 C27.9399698,42.5902489 27.9358725,42.5888436 27.9324581,42.587639 C27.9288161,42.5860329 27.9251741,42.5848284 27.9217597,42.5838246 C27.5429898,42.4442963 26.9447883,42.2076 26.5748959,42.0716854 C26.089597,41.8773495 25.6049809,41.6814076 25.1208201,41.4846626 L25.1208201,44.3067485 C25.1711255,44.1911106 25.2227966,44.0762758 25.2776545,43.962244 C25.3871427,43.7877834 25.4433664,43.5735723 25.642084,43.4573321 C26.1278382,43.1584002 26.6618491,42.9265222 27.192218,42.6970533 C27.2575467,42.6677423 27.31764,42.6474656 27.3802371,42.6291964 C27.4517117,42.6085181 27.5263731,42.5908512 27.6153749,42.567563 C27.7198553,42.5727828 27.8090848,42.5828208 27.8937617,42.5886428 C27.9101508,42.5898474 27.9269951,42.5908512 27.9433842,42.591855" id="Fill-102" fill="#467DB3"></path>
                <path d="M38.951384,36.0292484 L38.9809908,36.0534039 C39.4276439,36.1796222 39.8947154,36.2501303 40.357448,36.3245555 C40.757394,36.3502344 41.1570847,36.4331468 41.5593277,36.3950637 C41.9171607,36.1887621 42.3234874,36.0566682 42.7017388,35.8810507 C43.1573249,35.6984695 43.5945345,35.4867275 44.0319993,35.2760736 C43.7203631,35.2958768 43.4276139,35.3966338 43.1215927,35.4425511 C42.4151151,35.5789974 41.692558,35.6690911 40.9671933,35.6571222 C40.351833,35.6699616 39.721414,35.6788839 39.1417859,35.8773512 C39.100949,35.9058592 39.0616435,35.9352375 39.0238695,35.9665745 C39.0057481,35.9820253 38.9697606,36.0133623 38.951384,36.0292484" id="Fill-103" fill="#4D8FBF"></path>
            </g>
        </g>
    </g>
</svg>